<?xml version='1.0' encoding='UTF-8' standalone='no'?>
<!-- Created with Fritzing (http://www.fritzing.org/) -->
<svg xmlns="http://www.w3.org/2000/svg" width="5.94012in" x="0in" version="1.2" height="4.41815in"  y="0in" viewBox="0 0 427.689 318.107" baseProfile="tiny" xmlns:svg="http://www.w3.org/2000/svg">
 <g transform="matrix(-1, 0, 0, 1, 427.689, 0)">
  <g partID="57640">
   <g  id="board">
    <rect stroke-width="0.5" stroke="black" width="427.113" x="0.288" fill="none" height="317.531"  id="boardoutline" y="0.288" fill-opacity="0.5"/>
   </g>
  </g>
  <g partID="174781">
   <g transform="translate(1.77071,82.0165)">
    <g  id="copper1">
     <g  id="copper0">
      <circle stroke-width="2.16" stroke="black" fill="black" cx="39.24" r="4.32"  id="connector0pin" cy="12.96"/>
      <circle stroke-width="2.16" stroke="black" fill="black" cx="21.96" r="4.32"  id="connector1pin" cy="12.96"/>
      <circle stroke-width="2.16" stroke="black" fill="black" cx="30.6" r="4.32"  id="connector2pin" cy="26.64"/>
     </g>
    </g>
   </g>
  </g>
  <g partID="65631">
   <g transform="translate(55.9827,139.973)">
    <g  id="copper1">
     <g  id="copper0">
      <rect stroke-width="2.16" stroke="black" width="3.96" x="2.34" fill="black" height="3.96"  id="square" y="2.34"/>
      <circle stroke-width="2.16" stroke="black" fill="black" cx="4.32" r="1.98"  id="connector0pin" cy="4.32"/>
      <circle stroke-width="2.16" stroke="black" fill="black" cx="25.92" r="1.98"  id="connector7pin" cy="4.32"/>
      <circle stroke-width="2.16" stroke="black" fill="black" cx="4.32" r="1.98"  id="connector1pin" cy="11.52"/>
      <circle stroke-width="2.16" stroke="black" fill="black" cx="25.92" r="1.98"  id="connector6pin" cy="11.52"/>
      <circle stroke-width="2.16" stroke="black" fill="black" cx="4.32" r="1.98"  id="connector2pin" cy="18.72"/>
      <circle stroke-width="2.16" stroke="black" fill="black" cx="25.92" r="1.98"  id="connector5pin" cy="18.72"/>
      <circle stroke-width="2.16" stroke="black" fill="black" cx="4.32" r="1.98"  id="connector3pin" cy="25.92"/>
      <circle stroke-width="2.16" stroke="black" fill="black" cx="25.92" r="1.98"  id="connector4pin" cy="25.92"/>
     </g>
    </g>
   </g>
  </g>
  <g partID="65661">
   <g transform="translate(135.521,137.736)">
    <g  id="copper1">
     <g  id="copper0">
      <rect stroke-width="2.16" stroke="black" width="3.96" x="2.34" fill="black" height="3.96"  id="square" y="2.34"/>
      <circle stroke-width="2.16" stroke="black" fill="black" cx="4.32" r="1.98"  id="connector0pin" cy="4.32"/>
      <circle stroke-width="2.16" stroke="black" fill="black" cx="25.92" r="1.98"  id="connector7pin" cy="4.32"/>
      <circle stroke-width="2.16" stroke="black" fill="black" cx="4.32" r="1.98"  id="connector1pin" cy="11.52"/>
      <circle stroke-width="2.16" stroke="black" fill="black" cx="25.92" r="1.98"  id="connector6pin" cy="11.52"/>
      <circle stroke-width="2.16" stroke="black" fill="black" cx="4.32" r="1.98"  id="connector2pin" cy="18.72"/>
      <circle stroke-width="2.16" stroke="black" fill="black" cx="25.92" r="1.98"  id="connector5pin" cy="18.72"/>
      <circle stroke-width="2.16" stroke="black" fill="black" cx="4.32" r="1.98"  id="connector3pin" cy="25.92"/>
      <circle stroke-width="2.16" stroke="black" fill="black" cx="25.92" r="1.98"  id="connector4pin" cy="25.92"/>
     </g>
    </g>
   </g>
  </g>
  <g partID="65691">
   <g transform="translate(330.391,122.404)">
    <g  id="copper1">
     <g  id="copper0">
      <rect stroke-width="2.16" stroke="black" width="3.96" x="2.34" fill="black" height="3.96"  id="square" y="2.34"/>
      <circle stroke-width="2.16" stroke="black" fill="black" cx="4.32" r="1.98"  id="connector0pin" cy="4.32"/>
      <circle stroke-width="2.16" stroke="black" fill="black" cx="25.92" r="1.98"  id="connector7pin" cy="4.32"/>
      <circle stroke-width="2.16" stroke="black" fill="black" cx="4.32" r="1.98"  id="connector1pin" cy="11.52"/>
      <circle stroke-width="2.16" stroke="black" fill="black" cx="25.92" r="1.98"  id="connector6pin" cy="11.52"/>
      <circle stroke-width="2.16" stroke="black" fill="black" cx="4.32" r="1.98"  id="connector2pin" cy="18.72"/>
      <circle stroke-width="2.16" stroke="black" fill="black" cx="25.92" r="1.98"  id="connector5pin" cy="18.72"/>
      <circle stroke-width="2.16" stroke="black" fill="black" cx="4.32" r="1.98"  id="connector3pin" cy="25.92"/>
      <circle stroke-width="2.16" stroke="black" fill="black" cx="25.92" r="1.98"  id="connector4pin" cy="25.92"/>
     </g>
    </g>
   </g>
  </g>
  <g partID="65721">
   <g transform="translate(212.302,106.52)">
    <g  id="copper1">
     <g  id="copper0">
      <rect stroke-width="2.16" stroke="black" width="3.96" x="2.34" fill="black" height="3.96"  id="square" y="2.34"/>
      <circle stroke-width="2.16" stroke="black" fill="black" cx="4.32" r="1.98"  id="connector0pin" cy="4.32"/>
      <circle stroke-width="2.16" stroke="black" fill="black" cx="25.92" r="1.98"  id="connector7pin" cy="4.32"/>
      <circle stroke-width="2.16" stroke="black" fill="black" cx="4.32" r="1.98"  id="connector1pin" cy="11.52"/>
      <circle stroke-width="2.16" stroke="black" fill="black" cx="25.92" r="1.98"  id="connector6pin" cy="11.52"/>
      <circle stroke-width="2.16" stroke="black" fill="black" cx="4.32" r="1.98"  id="connector2pin" cy="18.72"/>
      <circle stroke-width="2.16" stroke="black" fill="black" cx="25.92" r="1.98"  id="connector5pin" cy="18.72"/>
      <circle stroke-width="2.16" stroke="black" fill="black" cx="4.32" r="1.98"  id="connector3pin" cy="25.92"/>
      <circle stroke-width="2.16" stroke="black" fill="black" cx="25.92" r="1.98"  id="connector4pin" cy="25.92"/>
     </g>
    </g>
   </g>
  </g>
  <g partID="65751">
   <g transform="translate(271.316,43.1901)">
    <g  id="copper1">
     <g  id="copper0">
      <rect stroke-width="2.16" stroke="black" width="3.96" x="2.34" fill="black" height="3.96"  id="square" y="2.34"/>
      <circle stroke-width="2.16" stroke="black" fill="black" cx="4.32" r="1.98"  id="connector0pin" cy="4.32"/>
      <circle stroke-width="2.16" stroke="black" fill="black" cx="25.92" r="1.98"  id="connector7pin" cy="4.32"/>
      <circle stroke-width="2.16" stroke="black" fill="black" cx="4.32" r="1.98"  id="connector1pin" cy="11.52"/>
      <circle stroke-width="2.16" stroke="black" fill="black" cx="25.92" r="1.98"  id="connector6pin" cy="11.52"/>
      <circle stroke-width="2.16" stroke="black" fill="black" cx="4.32" r="1.98"  id="connector2pin" cy="18.72"/>
      <circle stroke-width="2.16" stroke="black" fill="black" cx="25.92" r="1.98"  id="connector5pin" cy="18.72"/>
      <circle stroke-width="2.16" stroke="black" fill="black" cx="4.32" r="1.98"  id="connector3pin" cy="25.92"/>
      <circle stroke-width="2.16" stroke="black" fill="black" cx="25.92" r="1.98"  id="connector4pin" cy="25.92"/>
     </g>
    </g>
   </g>
  </g>
  <g partID="65781">
   <g transform="translate(79.232,192.141)">
    <g transform="matrix(0,1,-1,0,0,0)">
     <g  id="copper1">
      <g  id="copper0">
       <circle stroke-width="1.92" stroke="black" fill="black" cx="5.032" r="2.088"  id="connector0pin" cy="11.327"/>
       <circle stroke-width="1.92" stroke="black" fill="black" cx="5.031" r="2.088"  id="connector1pin" cy="18.527"/>
       <circle stroke-width="1.92" stroke="black" fill="black" cx="5.032" r="2.089"  id="connector2pin" cy="25.728"/>
       <g >
        <circle stroke-width="2.0044" stroke="black" fill="black" cx="26.292" r="3.823"  id="noconnector" cy="4.548"/>
        <circle stroke-width="2.0044" stroke="black" fill="black" cx="26.292" r="3.823"  id="noconnector_1_" cy="32.506"/>
       </g>
      </g>
     </g>
    </g>
   </g>
  </g>
  <g partID="65811">
   <g transform="translate(120.198,192.141)">
    <g transform="matrix(0,1,-1,0,0,0)">
     <g  id="copper1">
      <g  id="copper0">
       <circle stroke-width="1.92" stroke="black" fill="black" cx="5.032" r="2.088"  id="connector0pin" cy="11.327"/>
       <circle stroke-width="1.92" stroke="black" fill="black" cx="5.031" r="2.088"  id="connector1pin" cy="18.527"/>
       <circle stroke-width="1.92" stroke="black" fill="black" cx="5.032" r="2.089"  id="connector2pin" cy="25.728"/>
       <g >
        <circle stroke-width="2.0044" stroke="black" fill="black" cx="26.292" r="3.823"  id="noconnector" cy="4.548"/>
        <circle stroke-width="2.0044" stroke="black" fill="black" cx="26.292" r="3.823"  id="noconnector_1_" cy="32.506"/>
       </g>
      </g>
     </g>
    </g>
   </g>
  </g>
  <g partID="65841">
   <g transform="translate(162.483,192.141)">
    <g transform="matrix(0,1,-1,0,0,0)">
     <g  id="copper1">
      <g  id="copper0">
       <circle stroke-width="1.92" stroke="black" fill="black" cx="5.032" r="2.088"  id="connector0pin" cy="11.327"/>
       <circle stroke-width="1.92" stroke="black" fill="black" cx="5.031" r="2.088"  id="connector1pin" cy="18.527"/>
       <circle stroke-width="1.92" stroke="black" fill="black" cx="5.032" r="2.089"  id="connector2pin" cy="25.728"/>
       <g >
        <circle stroke-width="2.0044" stroke="black" fill="black" cx="26.292" r="3.823"  id="noconnector" cy="4.548"/>
        <circle stroke-width="2.0044" stroke="black" fill="black" cx="26.292" r="3.823"  id="noconnector_1_" cy="32.506"/>
       </g>
      </g>
     </g>
    </g>
   </g>
  </g>
  <g partID="65871">
   <g transform="translate(205.013,192.141)">
    <g transform="matrix(0,1,-1,0,0,0)">
     <g  id="copper1">
      <g  id="copper0">
       <circle stroke-width="1.92" stroke="black" fill="black" cx="5.032" r="2.088"  id="connector0pin" cy="11.327"/>
       <circle stroke-width="1.92" stroke="black" fill="black" cx="5.031" r="2.088"  id="connector1pin" cy="18.527"/>
       <circle stroke-width="1.92" stroke="black" fill="black" cx="5.032" r="2.089"  id="connector2pin" cy="25.728"/>
       <g >
        <circle stroke-width="2.0044" stroke="black" fill="black" cx="26.292" r="3.823"  id="noconnector" cy="4.548"/>
        <circle stroke-width="2.0044" stroke="black" fill="black" cx="26.292" r="3.823"  id="noconnector_1_" cy="32.506"/>
       </g>
      </g>
     </g>
    </g>
   </g>
  </g>
  <g partID="65901">
   <g transform="translate(245.599,192.141)">
    <g transform="matrix(0,1,-1,0,0,0)">
     <g  id="copper1">
      <g  id="copper0">
       <circle stroke-width="1.92" stroke="black" fill="black" cx="5.032" r="2.088"  id="connector0pin" cy="11.327"/>
       <circle stroke-width="1.92" stroke="black" fill="black" cx="5.031" r="2.088"  id="connector1pin" cy="18.527"/>
       <circle stroke-width="1.92" stroke="black" fill="black" cx="5.032" r="2.089"  id="connector2pin" cy="25.728"/>
       <g >
        <circle stroke-width="2.0044" stroke="black" fill="black" cx="26.292" r="3.823"  id="noconnector" cy="4.548"/>
        <circle stroke-width="2.0044" stroke="black" fill="black" cx="26.292" r="3.823"  id="noconnector_1_" cy="32.506"/>
       </g>
      </g>
     </g>
    </g>
   </g>
  </g>
  <g partID="65951">
   <g transform="translate(285.303,192.141)">
    <g transform="matrix(0,1,-1,0,0,0)">
     <g  id="copper1">
      <g  id="copper0">
       <circle stroke-width="1.92" stroke="black" fill="black" cx="5.032" r="2.088"  id="connector0pin" cy="11.327"/>
       <circle stroke-width="1.92" stroke="black" fill="black" cx="5.031" r="2.088"  id="connector1pin" cy="18.527"/>
       <circle stroke-width="1.92" stroke="black" fill="black" cx="5.032" r="2.089"  id="connector2pin" cy="25.728"/>
       <g >
        <circle stroke-width="2.0044" stroke="black" fill="black" cx="26.292" r="3.823"  id="noconnector" cy="4.548"/>
        <circle stroke-width="2.0044" stroke="black" fill="black" cx="26.292" r="3.823"  id="noconnector_1_" cy="32.506"/>
       </g>
      </g>
     </g>
    </g>
   </g>
  </g>
  <g partID="65981">
   <g transform="translate(326.138,192.141)">
    <g transform="matrix(0,1,-1,0,0,0)">
     <g  id="copper1">
      <g  id="copper0">
       <circle stroke-width="1.92" stroke="black" fill="black" cx="5.032" r="2.088"  id="connector0pin" cy="11.327"/>
       <circle stroke-width="1.92" stroke="black" fill="black" cx="5.031" r="2.088"  id="connector1pin" cy="18.527"/>
       <circle stroke-width="1.92" stroke="black" fill="black" cx="5.032" r="2.089"  id="connector2pin" cy="25.728"/>
       <g >
        <circle stroke-width="2.0044" stroke="black" fill="black" cx="26.292" r="3.823"  id="noconnector" cy="4.548"/>
        <circle stroke-width="2.0044" stroke="black" fill="black" cx="26.292" r="3.823"  id="noconnector_1_" cy="32.506"/>
       </g>
      </g>
     </g>
    </g>
   </g>
  </g>
  <g partID="66011">
   <g transform="translate(367.434,192.141)">
    <g transform="matrix(0,1,-1,0,0,0)">
     <g  id="copper1">
      <g  id="copper0">
       <circle stroke-width="1.92" stroke="black" fill="black" cx="5.032" r="2.088"  id="connector0pin" cy="11.327"/>
       <circle stroke-width="1.92" stroke="black" fill="black" cx="5.031" r="2.088"  id="connector1pin" cy="18.527"/>
       <circle stroke-width="1.92" stroke="black" fill="black" cx="5.032" r="2.089"  id="connector2pin" cy="25.728"/>
       <g >
        <circle stroke-width="2.0044" stroke="black" fill="black" cx="26.292" r="3.823"  id="noconnector" cy="4.548"/>
        <circle stroke-width="2.0044" stroke="black" fill="black" cx="26.292" r="3.823"  id="noconnector_1_" cy="32.506"/>
       </g>
      </g>
     </g>
    </g>
   </g>
  </g>
  <g partID="66191">
   <g transform="translate(337.301,252.856)">
    <g  id="copper1">
     <g  id="copper0">
      <circle stroke-width="2.16" stroke="black" fill="black" cx="20.8462" r="1.98"  id="connector0pad" cy="15.6024"/>
      <circle stroke-width="2.16" stroke="black" fill="black" cx="2.42064" r="1.98"  id="connector1pad" cy="15.6024"/>
      <circle stroke-width="2.16" stroke="black" fill="black" cx="20.8462" r="1.98"  id="connector2pad" cy="2.84616"/>
      <circle stroke-width="2.16" stroke="black" fill="black" cx="2.42064" r="1.98"  id="connector3pad" cy="2.84616"/>
     </g>
    </g>
   </g>
  </g>
  <g partID="66171">
   <g transform="translate(296.005,252.856)">
    <g  id="copper1">
     <g  id="copper0">
      <circle stroke-width="2.16" stroke="black" fill="black" cx="20.8462" r="1.98"  id="connector0pad" cy="15.6024"/>
      <circle stroke-width="2.16" stroke="black" fill="black" cx="2.42064" r="1.98"  id="connector1pad" cy="15.6024"/>
      <circle stroke-width="2.16" stroke="black" fill="black" cx="20.8462" r="1.98"  id="connector2pad" cy="2.84616"/>
      <circle stroke-width="2.16" stroke="black" fill="black" cx="2.42064" r="1.98"  id="connector3pad" cy="2.84616"/>
     </g>
    </g>
   </g>
  </g>
  <g partID="66151">
   <g transform="translate(255.17,252.856)">
    <g  id="copper1">
     <g  id="copper0">
      <circle stroke-width="2.16" stroke="black" fill="black" cx="20.8462" r="1.98"  id="connector0pad" cy="15.6024"/>
      <circle stroke-width="2.16" stroke="black" fill="black" cx="2.42064" r="1.98"  id="connector1pad" cy="15.6024"/>
      <circle stroke-width="2.16" stroke="black" fill="black" cx="20.8462" r="1.98"  id="connector2pad" cy="2.84616"/>
      <circle stroke-width="2.16" stroke="black" fill="black" cx="2.42064" r="1.98"  id="connector3pad" cy="2.84616"/>
     </g>
    </g>
   </g>
  </g>
  <g partID="66131">
   <g transform="translate(215.466,252.856)">
    <g  id="copper1">
     <g  id="copper0">
      <circle stroke-width="2.16" stroke="black" fill="black" cx="20.8462" r="1.98"  id="connector0pad" cy="15.6024"/>
      <circle stroke-width="2.16" stroke="black" fill="black" cx="2.42064" r="1.98"  id="connector1pad" cy="15.6024"/>
      <circle stroke-width="2.16" stroke="black" fill="black" cx="20.8462" r="1.98"  id="connector2pad" cy="2.84616"/>
      <circle stroke-width="2.16" stroke="black" fill="black" cx="2.42064" r="1.98"  id="connector3pad" cy="2.84616"/>
     </g>
    </g>
   </g>
  </g>
  <g partID="66111">
   <g transform="translate(174.879,252.856)">
    <g  id="copper1">
     <g  id="copper0">
      <circle stroke-width="2.16" stroke="black" fill="black" cx="20.8462" r="1.98"  id="connector0pad" cy="15.6024"/>
      <circle stroke-width="2.16" stroke="black" fill="black" cx="2.42064" r="1.98"  id="connector1pad" cy="15.6024"/>
      <circle stroke-width="2.16" stroke="black" fill="black" cx="20.8462" r="1.98"  id="connector2pad" cy="2.84616"/>
      <circle stroke-width="2.16" stroke="black" fill="black" cx="2.42064" r="1.98"  id="connector3pad" cy="2.84616"/>
     </g>
    </g>
   </g>
  </g>
  <g partID="66091">
   <g transform="translate(132.35,252.856)">
    <g  id="copper1">
     <g  id="copper0">
      <circle stroke-width="2.16" stroke="black" fill="black" cx="20.8462" r="1.98"  id="connector0pad" cy="15.6024"/>
      <circle stroke-width="2.16" stroke="black" fill="black" cx="2.42064" r="1.98"  id="connector1pad" cy="15.6024"/>
      <circle stroke-width="2.16" stroke="black" fill="black" cx="20.8462" r="1.98"  id="connector2pad" cy="2.84616"/>
      <circle stroke-width="2.16" stroke="black" fill="black" cx="2.42064" r="1.98"  id="connector3pad" cy="2.84616"/>
     </g>
    </g>
   </g>
  </g>
  <g partID="66071">
   <g transform="translate(90.0643,252.856)">
    <g  id="copper1">
     <g  id="copper0">
      <circle stroke-width="2.16" stroke="black" fill="black" cx="20.8462" r="1.98"  id="connector0pad" cy="15.6024"/>
      <circle stroke-width="2.16" stroke="black" fill="black" cx="2.42064" r="1.98"  id="connector1pad" cy="15.6024"/>
      <circle stroke-width="2.16" stroke="black" fill="black" cx="20.8462" r="1.98"  id="connector2pad" cy="2.84616"/>
      <circle stroke-width="2.16" stroke="black" fill="black" cx="2.42064" r="1.98"  id="connector3pad" cy="2.84616"/>
     </g>
    </g>
   </g>
  </g>
  <g partID="66041">
   <g transform="translate(49.0987,252.856)">
    <g  id="copper1">
     <g  id="copper0">
      <circle stroke-width="2.16" stroke="black" fill="black" cx="20.8462" r="1.98"  id="connector0pad" cy="15.6024"/>
      <circle stroke-width="2.16" stroke="black" fill="black" cx="2.42064" r="1.98"  id="connector1pad" cy="15.6024"/>
      <circle stroke-width="2.16" stroke="black" fill="black" cx="20.8462" r="1.98"  id="connector2pad" cy="2.84616"/>
      <circle stroke-width="2.16" stroke="black" fill="black" cx="2.42064" r="1.98"  id="connector3pad" cy="2.84616"/>
     </g>
    </g>
   </g>
  </g>
  <g partID="84071">
   <g transform="translate(315.085,23.6283)">
    <g transform="matrix(-1,0,0,-1,0,0)">
     <g  id="copper1">
      <!-- <rect width="55" x="10" y="15.5" fill="none" height="55" stroke="rgb(255, 191, 0)" stroke-width="20" />  -->
      <circle stroke-width="2.16" stroke="black" fill="black" cx="2.7" r="1.98"  id="connector0pin" cy="3.096"/>
      <circle stroke-width="2.16" stroke="black" fill="black" cx="31.5" r="1.98"  id="connector1pin" cy="3.096"/>
     </g>
    </g>
   </g>
  </g>
  <g partID="68101">
   <g transform="translate(91.1467,154.422)">
    <g  id="copper1">
     <!--  <rect width="55" x="10" y="35" fill="none" height="55" stroke="rgb(255, 191, 0)" stroke-width="20" /> -->
     <circle stroke-width="2.16" stroke="black" fill="black" cx="2.7" r="1.98"  id="connector0pin" cy="4.5"/>
     <circle stroke-width="2.16" stroke="black" fill="black" cx="9.9" r="1.98"  id="connector1pin" cy="4.5"/>
    </g>
   </g>
  </g>
  <g partID="85231">
   <g transform="translate(250.206,56.7337)">
    <g transform="matrix(0,1,-1,0,0,0)">
     <g  id="copper1">
      <!-- <rect width="55" x="10" y="15.5" fill="none" height="55" stroke="rgb(255, 191, 0)" stroke-width="20" />  -->
      <circle stroke-width="2.16" stroke="black" fill="black" cx="2.7" r="1.98"  id="connector0pin" cy="3.096"/>
      <circle stroke-width="2.16" stroke="black" fill="black" cx="31.5" r="1.98"  id="connector1pin" cy="3.096"/>
     </g>
    </g>
   </g>
  </g>
  <g partID="85221">
   <g transform="translate(259.449,72.2615)">
    <g transform="matrix(0,-1,1,0,0,0)">
     <g  id="copper1">
      <!--  <rect width="55" x="10" y="35" fill="none" height="55" stroke="rgb(255, 191, 0)" stroke-width="20" /> -->
      <circle stroke-width="2.16" stroke="black" fill="black" cx="2.7" r="1.98"  id="connector0pin" cy="4.5"/>
      <circle stroke-width="2.16" stroke="black" fill="black" cx="9.9" r="1.98"  id="connector1pin" cy="4.5"/>
     </g>
    </g>
   </g>
  </g>
  <g partID="71141">
   <g transform="translate(109.284,109.592)">
    <g  id="copper1">
     <!-- <rect width="55" x="10" y="15.5" fill="none" height="55" stroke="rgb(255, 191, 0)" stroke-width="20" />  -->
     <circle stroke-width="2.16" stroke="black" fill="black" cx="2.7" r="1.98"  id="connector0pin" cy="3.096"/>
     <circle stroke-width="2.16" stroke="black" fill="black" cx="31.5" r="1.98"  id="connector1pin" cy="3.096"/>
    </g>
   </g>
  </g>
  <g partID="71131">
   <g transform="translate(115.929,178.982)">
    <g transform="matrix(0,-1,1,0,0,0)">
     <g  id="copper1">
      <!--  <rect width="55" x="10" y="35" fill="none" height="55" stroke="rgb(255, 191, 0)" stroke-width="20" /> -->
      <circle stroke-width="2.16" stroke="black" fill="black" cx="2.7" r="1.98"  id="connector0pin" cy="4.5"/>
      <circle stroke-width="2.16" stroke="black" fill="black" cx="9.9" r="1.98"  id="connector1pin" cy="4.5"/>
     </g>
    </g>
   </g>
  </g>
  <g partID="70311">
   <g transform="translate(75.3163,173.211)">
    <g  id="copper1">
     <!-- <rect width="55" x="10" y="15.5" fill="none" height="55" stroke="rgb(255, 191, 0)" stroke-width="20" />  -->
     <circle stroke-width="2.16" stroke="black" fill="black" cx="2.7" r="1.98"  id="connector0pin" cy="3.096"/>
     <circle stroke-width="2.16" stroke="black" fill="black" cx="31.5" r="1.98"  id="connector1pin" cy="3.096"/>
    </g>
   </g>
  </g>
  <g partID="70281">
   <g transform="translate(109.378,126.704)">
    <g  id="copper1">
     <!-- <rect width="55" x="10" y="15.5" fill="none" height="55" stroke="rgb(255, 191, 0)" stroke-width="20" />  -->
     <circle stroke-width="2.16" stroke="black" fill="black" cx="2.7" r="1.98"  id="connector0pin" cy="3.096"/>
     <circle stroke-width="2.16" stroke="black" fill="black" cx="31.5" r="1.98"  id="connector1pin" cy="3.096"/>
    </g>
   </g>
  </g>
  <g partID="82931">
   <g transform="translate(233.969,166.38)">
    <g transform="matrix(0,-1,1,0,0,0)">
     <g  id="copper1">
      <!--  <rect width="55" x="10" y="35" fill="none" height="55" stroke="rgb(255, 191, 0)" stroke-width="20" /> -->
      <circle stroke-width="2.16" stroke="black" fill="black" cx="2.7" r="1.98"  id="connector0pin" cy="4.5"/>
      <circle stroke-width="2.16" stroke="black" fill="black" cx="9.9" r="1.98"  id="connector1pin" cy="4.5"/>
     </g>
    </g>
   </g>
  </g>
  <g partID="73441">
   <g transform="translate(120.34,155.951)">
    <g transform="matrix(0,-1,1,0,0,0)">
     <g  id="copper1">
      <!--  <rect width="55" x="10" y="35" fill="none" height="55" stroke="rgb(255, 191, 0)" stroke-width="20" /> -->
      <circle stroke-width="2.16" stroke="black" fill="black" cx="2.7" r="1.98"  id="connector0pin" cy="4.5"/>
      <circle stroke-width="2.16" stroke="black" fill="black" cx="9.9" r="1.98"  id="connector1pin" cy="4.5"/>
     </g>
    </g>
   </g>
  </g>
  <g partID="72711">
   <g transform="translate(38.8595,178.699)">
    <g transform="matrix(0,-1,1,0,0,0)">
     <g  id="copper1">
      <!-- <rect width="55" x="10" y="15.5" fill="none" height="55" stroke="rgb(255, 191, 0)" stroke-width="20" />  -->
      <circle stroke-width="2.16" stroke="black" fill="black" cx="2.7" r="1.98"  id="connector0pin" cy="3.096"/>
      <circle stroke-width="2.16" stroke="black" fill="black" cx="31.5" r="1.98"  id="connector1pin" cy="3.096"/>
     </g>
    </g>
   </g>
  </g>
  <g partID="84231">
   <g transform="translate(316.961,32.0632)">
    <g transform="matrix(0,-1,1,0,0,0)">
     <g  id="copper1">
      <!--  <rect width="55" x="10" y="35" fill="none" height="55" stroke="rgb(255, 191, 0)" stroke-width="20" /> -->
      <circle stroke-width="2.16" stroke="black" fill="black" cx="2.7" r="1.98"  id="connector0pin" cy="4.5"/>
      <circle stroke-width="2.16" stroke="black" fill="black" cx="9.9" r="1.98"  id="connector1pin" cy="4.5"/>
     </g>
    </g>
   </g>
  </g>
  <g partID="83091">
   <g transform="translate(243.132,128.12)">
    <g transform="matrix(0,-1,1,0,0,0)">
     <g  id="copper1">
      <!--  <rect width="55" x="10" y="35" fill="none" height="55" stroke="rgb(255, 191, 0)" stroke-width="20" /> -->
      <circle stroke-width="2.16" stroke="black" fill="black" cx="2.7" r="1.98"  id="connector0pin" cy="4.5"/>
      <circle stroke-width="2.16" stroke="black" fill="black" cx="9.9" r="1.98"  id="connector1pin" cy="4.5"/>
     </g>
    </g>
   </g>
  </g>
  <g partID="80941">
   <g transform="translate(299.576,113.528)">
    <g transform="matrix(0,1,-1,0,0,0)">
     <g  id="copper1">
      <!--  <rect width="55" x="10" y="35" fill="none" height="55" stroke="rgb(255, 191, 0)" stroke-width="20" /> -->
      <circle stroke-width="2.16" stroke="black" fill="black" cx="2.7" r="1.98"  id="connector0pin" cy="4.5"/>
      <circle stroke-width="2.16" stroke="black" fill="black" cx="9.9" r="1.98"  id="connector1pin" cy="4.5"/>
     </g>
    </g>
   </g>
  </g>
  <g partID="78111">
   <g transform="translate(133.781,173.211)">
    <g  id="copper1">
     <!-- <rect width="55" x="10" y="15.5" fill="none" height="55" stroke="rgb(255, 191, 0)" stroke-width="20" />  -->
     <circle stroke-width="2.16" stroke="black" fill="black" cx="2.7" r="1.98"  id="connector0pin" cy="3.096"/>
     <circle stroke-width="2.16" stroke="black" fill="black" cx="31.5" r="1.98"  id="connector1pin" cy="3.096"/>
    </g>
   </g>
  </g>
  <g partID="73091">
   <g transform="translate(47.8411,154.688)">
    <g transform="matrix(0,-1,1,0,0,0)">
     <g  id="copper1">
      <!-- <rect width="55" x="10" y="15.5" fill="none" height="55" stroke="rgb(255, 191, 0)" stroke-width="20" />  -->
      <circle stroke-width="2.16" stroke="black" fill="black" cx="2.7" r="1.98"  id="connector0pin" cy="3.096"/>
      <circle stroke-width="2.16" stroke="black" fill="black" cx="31.5" r="1.98"  id="connector1pin" cy="3.096"/>
     </g>
    </g>
   </g>
  </g>
  <g partID="75891">
   <g transform="translate(100.167,136.839)">
    <g transform="matrix(0,1,-1,0,0,0)">
     <g  id="copper1">
      <circle stroke-width="2.16" stroke="black" fill="black" cx="2.88" r="1.8"  id="connector0pin" cy="2.88"/>
      <circle stroke-width="2.16" stroke="black" fill="black" cx="10.0933" r="1.8"  id="connector1pin" cy="2.88"/>
     </g>
    </g>
   </g>
  </g>
  <g partID="99831">
   <g transform="translate(371.869,158.777)">
    <g transform="matrix(0,-1,1,0,0,0)">
     <g  id="copper1">
      <g  id="copper0">
       <circle stroke-width="2.808" stroke="black" fill="black" cx="3.528" r="2.52"  id="connector2pad" cy="22.464"/>
       <rect stroke-width="2.808" stroke="black" width="5.04" x="1.008" fill="black" height="5.04"  y="5.544"/>
       <circle stroke-width="2.808" stroke="black" fill="black" cx="3.528" r="2.52"  id="connector0pad" cy="8.064"/>
       <circle stroke-width="2.808" stroke="black" fill="black" cx="32.328" r="2.52"  id="connector1pad" cy="15.264"/>
      </g>
     </g>
    </g>
   </g>
  </g>
  <g partID="77661">
   <g transform="translate(274.425,103.541)">
    <g  id="copper1">
     <!-- <rect width="55" x="10" y="15.5" fill="none" height="55" stroke="rgb(255, 191, 0)" stroke-width="20" />  -->
     <circle stroke-width="2.16" stroke="black" fill="black" cx="2.7" r="1.98"  id="connector0pin" cy="3.096"/>
     <circle stroke-width="2.16" stroke="black" fill="black" cx="31.5" r="1.98"  id="connector1pin" cy="3.096"/>
    </g>
   </g>
  </g>
  <g partID="78791">
   <g transform="translate(180.717,133.174)">
    <g transform="matrix(-1,0,0,-1,0,0)">
     <g  id="copper1">
      <!-- <rect width="55" x="10" y="15.5" fill="none" height="55" stroke="rgb(255, 191, 0)" stroke-width="20" />  -->
      <circle stroke-width="2.16" stroke="black" fill="black" cx="2.7" r="1.98"  id="connector0pin" cy="3.096"/>
      <circle stroke-width="2.16" stroke="black" fill="black" cx="31.5" r="1.98"  id="connector1pin" cy="3.096"/>
     </g>
    </g>
   </g>
  </g>
  <g partID="80111">
   <g transform="translate(167.274,159.486)">
    <g transform="matrix(0,-1,1,0,0,0)">
     <g  id="copper1">
      <g  id="copper0">
       <rect stroke-width="2.16" width="3.96" stroke="black" x="1.98" fill="black" height="3.96"  y="5.58" id="rect11"/>
       <circle stroke-width="2.16" stroke="black" fill="black" cx="3.96" r="1.98"  id="connector0pin" cy="7.56"/>
       <circle stroke-width="2.16" stroke="black" fill="black" cx="11.16" r="1.98"  id="connector1pin" cy="7.56"/>
      </g>
     </g>
    </g>
   </g>
  </g>
  <g partID="82051">
   <g transform="translate(272.66,159.328)">
    <g  id="copper1">
     <!-- <rect width="55" x="10" y="15.5" fill="none" height="55" stroke="rgb(255, 191, 0)" stroke-width="20" />  -->
     <circle stroke-width="2.16" stroke="black" fill="black" cx="2.7" r="1.98"  id="connector0pin" cy="3.096"/>
     <circle stroke-width="2.16" stroke="black" fill="black" cx="31.5" r="1.98"  id="connector1pin" cy="3.096"/>
    </g>
   </g>
  </g>
  <g partID="82221">
   <g transform="translate(306.774,176.634)">
    <g transform="matrix(-1,0,0,-1,0,0)">
     <g  id="copper1">
      <!-- <rect width="55" x="10" y="15.5" fill="none" height="55" stroke="rgb(255, 191, 0)" stroke-width="20" />  -->
      <circle stroke-width="2.16" stroke="black" fill="black" cx="2.7" r="1.98"  id="connector0pin" cy="3.096"/>
      <circle stroke-width="2.16" stroke="black" fill="black" cx="31.5" r="1.98"  id="connector1pin" cy="3.096"/>
     </g>
    </g>
   </g>
  </g>
  <g partID="83981">
   <g transform="translate(347.777,21.9753)">
    <g transform="matrix(-1,0,0,-1,0,0)">
     <g  id="copper1">
      <g  id="copper0">
       <rect stroke-width="2.16" width="3.96" stroke="black" x="1.98" fill="black" height="3.96"  y="5.58" id="rect11"/>
       <circle stroke-width="2.16" stroke="black" fill="black" cx="3.96" r="1.98"  id="connector0pin" cy="7.56"/>
       <circle stroke-width="2.16" stroke="black" fill="black" cx="11.16" r="1.98"  id="connector1pin" cy="7.56"/>
      </g>
     </g>
    </g>
   </g>
  </g>
  <g partID="82681">
   <g transform="translate(247.957,156.123)">
    <g  id="copper1">
     <g  id="copper0">
      <rect stroke-width="2.16" width="3.96" stroke="black" x="1.98" fill="black" height="3.96"  y="5.58" id="rect11"/>
      <circle stroke-width="2.16" stroke="black" fill="black" cx="3.96" r="1.98"  id="connector0pin" cy="7.56"/>
      <circle stroke-width="2.16" stroke="black" fill="black" cx="11.16" r="1.98"  id="connector1pin" cy="7.56"/>
     </g>
    </g>
   </g>
  </g>
  <g partID="83531">
   <g transform="translate(356.839,11.3481)">
    <g  id="copper1">
     <g  id="copper0">
      <rect stroke-width="2.16" width="4.176" stroke="black" x="2.952" fill="black" height="4.176"  id="square" y="2.952"/>
      <circle stroke-width="2.16" stroke="black" fill="black" cx="5.04" r="2.088"  id="connector0pin" cy="5.04"/>
      <circle stroke-width="2.16" stroke="black" fill="black" cx="5.04" r="2.088"  id="connector1pin" cy="12.24"/>
     </g>
    </g>
   </g>
  </g>
  <g partID="87961">
   <g transform="translate(204.539,108.247)">
    <g transform="matrix(0,1,-1,0,0,0)">
     <g  id="copper1">
      <circle stroke-width="2.16" stroke="black" fill="black" cx="2.88" r="1.8"  id="connector0pin" cy="2.88"/>
      <circle stroke-width="2.16" stroke="black" fill="black" cx="10.0933" r="1.8"  id="connector1pin" cy="2.88"/>
     </g>
    </g>
   </g>
  </g>
  <g partID="84761">
   <g transform="translate(280.918,29.8909)">
    <g  id="copper1">
     <circle stroke-width="2.16" stroke="black" fill="black" cx="2.88" r="1.8"  id="connector0pin" cy="2.88"/>
     <circle stroke-width="2.16" stroke="black" fill="black" cx="10.0933" r="1.8"  id="connector1pin" cy="2.88"/>
    </g>
   </g>
  </g>
  <g partID="87271">
   <g transform="translate(392.489,192.886)">
    <g  id="copper1">
     <!-- <rect width="55" x="10" y="10" fill="none" height="55" stroke="rgb(255, 191, 0)" stroke-width="20" /> -->
     <circle stroke-width="2.16" stroke="black" fill="black" cx="2.7" r="1.98"  id="connector0pin" cy="2.7"/>
     <circle stroke-width="2.16" stroke="black" fill="black" cx="24.3" r="1.98"  id="connector1pin" cy="2.7"/>
    </g>
   </g>
  </g>
  <g partID="87321">
   <g transform="translate(420.992,184.507)">
    <g transform="matrix(-1,0,0,-1,0,0)">
     <g  id="copper1">
      <!-- <rect width="55" x="10" y="15.5" fill="none" height="55" stroke="rgb(255, 191, 0)" stroke-width="20" />  -->
      <circle stroke-width="2.16" stroke="black" fill="black" cx="2.7" r="1.98"  id="connector0pin" cy="3.096"/>
      <circle stroke-width="2.16" stroke="black" fill="black" cx="31.5" r="1.98"  id="connector1pin" cy="3.096"/>
     </g>
    </g>
   </g>
  </g>
  <g partID="87931">
   <g transform="translate(392.608,205.831)">
    <g  id="copper1">
     <!-- <rect width="55" x="10" y="10" fill="none" height="55" stroke="rgb(255, 191, 0)" stroke-width="20" /> -->
     <circle stroke-width="2.16" stroke="black" fill="black" cx="2.7" r="1.98"  id="connector0pin" cy="2.7"/>
     <circle stroke-width="2.16" stroke="black" fill="black" cx="24.3" r="1.98"  id="connector1pin" cy="2.7"/>
    </g>
   </g>
  </g>
  <g partID="88301">
   <g transform="translate(224.252,145.608)">
    <g transform="matrix(-1,0,0,-1,0,0)">
     <g  id="copper1">
      <!-- <rect width="55" x="10" y="15.5" fill="none" height="55" stroke="rgb(255, 191, 0)" stroke-width="20" />  -->
      <circle stroke-width="2.16" stroke="black" fill="black" cx="2.7" r="1.98"  id="connector0pin" cy="3.096"/>
      <circle stroke-width="2.16" stroke="black" fill="black" cx="31.5" r="1.98"  id="connector1pin" cy="3.096"/>
     </g>
    </g>
   </g>
  </g>
  <g partID="89781">
   <g transform="translate(161.87,122.246)">
    <g transform="matrix(0,-1,1,0,0,0)">
     <g  id="copper1">
      <g  id="copper0">
       <circle stroke-width="2.808" stroke="black" fill="black" cx="3.528" r="2.52"  id="connector2pad" cy="22.464"/>
       <rect stroke-width="2.808" stroke="black" width="5.04" x="1.008" fill="black" height="5.04"  y="5.544"/>
       <circle stroke-width="2.808" stroke="black" fill="black" cx="3.528" r="2.52"  id="connector0pad" cy="8.064"/>
       <circle stroke-width="2.808" stroke="black" fill="black" cx="32.328" r="2.52"  id="connector1pad" cy="15.264"/>
      </g>
     </g>
    </g>
   </g>
  </g>
 </g>
</svg>
