<?xml version='1.0' encoding='UTF-8' standalone='no'?>
<!-- Created with Fritzing (http://www.fritzing.org/) -->
<svg xmlns="http://www.w3.org/2000/svg" width="5.94012in" x="0in" version="1.2" height="4.41815in"  y="0in" viewBox="0 0 427.689 318.107" baseProfile="tiny" xmlns:svg="http://www.w3.org/2000/svg">
 <g transform="matrix(-1, 0, 0, 1, 427.689, 0)">
  <g partID="57640">
   <g  id="board">
    <rect stroke-width="0.5" stroke="black" width="427.113" x="0.288" fill="none" height="317.531"  id="boardoutline" y="0.288" fill-opacity="0.5"/>
   </g>
  </g>
  <g partID="174781">
   <g transform="translate(-3.78042,77.9261)">
    <g  id="copper1">
     <g  id="copper0">
      <circle stroke-width="1.44" stroke="black" fill="none" cx="39.24" r="4.32"  id="connector0pin" cy="12.96"/>
      <circle stroke-width="1.44" stroke="black" fill="none" cx="21.96" r="4.32"  id="connector1pin" cy="12.96"/>
      <circle stroke-width="1.44" stroke="black" fill="none" cx="30.6" r="4.32"  id="connector2pin" cy="26.64"/>
     </g>
    </g>
   </g>
  </g>
  <g partID="65631">
   <g transform="translate(50.4316,135.883)">
    <g  id="copper1">
     <g  id="copper0">
      <rect stroke-width="1.44" stroke="black" width="3.96" x="2.34" fill="none" height="3.96"  id="square" y="2.34"/>
      <circle stroke-width="1.44" stroke="black" fill="none" cx="4.32" r="1.98"  id="connector0pin" cy="4.32"/>
      <circle stroke-width="1.44" stroke="black" fill="none" cx="25.92" r="1.98"  id="connector7pin" cy="4.32"/>
      <circle stroke-width="1.44" stroke="black" fill="none" cx="4.32" r="1.98"  id="connector1pin" cy="11.52"/>
      <circle stroke-width="1.44" stroke="black" fill="none" cx="25.92" r="1.98"  id="connector6pin" cy="11.52"/>
      <circle stroke-width="1.44" stroke="black" fill="none" cx="4.32" r="1.98"  id="connector2pin" cy="18.72"/>
      <circle stroke-width="1.44" stroke="black" fill="none" cx="25.92" r="1.98"  id="connector5pin" cy="18.72"/>
      <circle stroke-width="1.44" stroke="black" fill="none" cx="4.32" r="1.98"  id="connector3pin" cy="25.92"/>
      <circle stroke-width="1.44" stroke="black" fill="none" cx="25.92" r="1.98"  id="connector4pin" cy="25.92"/>
     </g>
    </g>
   </g>
  </g>
  <g partID="65661">
   <g transform="translate(129.97,133.646)">
    <g  id="copper1">
     <g  id="copper0">
      <rect stroke-width="1.44" stroke="black" width="3.96" x="2.34" fill="none" height="3.96"  id="square" y="2.34"/>
      <circle stroke-width="1.44" stroke="black" fill="none" cx="4.32" r="1.98"  id="connector0pin" cy="4.32"/>
      <circle stroke-width="1.44" stroke="black" fill="none" cx="25.92" r="1.98"  id="connector7pin" cy="4.32"/>
      <circle stroke-width="1.44" stroke="black" fill="none" cx="4.32" r="1.98"  id="connector1pin" cy="11.52"/>
      <circle stroke-width="1.44" stroke="black" fill="none" cx="25.92" r="1.98"  id="connector6pin" cy="11.52"/>
      <circle stroke-width="1.44" stroke="black" fill="none" cx="4.32" r="1.98"  id="connector2pin" cy="18.72"/>
      <circle stroke-width="1.44" stroke="black" fill="none" cx="25.92" r="1.98"  id="connector5pin" cy="18.72"/>
      <circle stroke-width="1.44" stroke="black" fill="none" cx="4.32" r="1.98"  id="connector3pin" cy="25.92"/>
      <circle stroke-width="1.44" stroke="black" fill="none" cx="25.92" r="1.98"  id="connector4pin" cy="25.92"/>
     </g>
    </g>
   </g>
  </g>
  <g partID="65691">
   <g transform="translate(324.84,118.313)">
    <g  id="copper1">
     <g  id="copper0">
      <rect stroke-width="1.44" stroke="black" width="3.96" x="2.34" fill="none" height="3.96"  id="square" y="2.34"/>
      <circle stroke-width="1.44" stroke="black" fill="none" cx="4.32" r="1.98"  id="connector0pin" cy="4.32"/>
      <circle stroke-width="1.44" stroke="black" fill="none" cx="25.92" r="1.98"  id="connector7pin" cy="4.32"/>
      <circle stroke-width="1.44" stroke="black" fill="none" cx="4.32" r="1.98"  id="connector1pin" cy="11.52"/>
      <circle stroke-width="1.44" stroke="black" fill="none" cx="25.92" r="1.98"  id="connector6pin" cy="11.52"/>
      <circle stroke-width="1.44" stroke="black" fill="none" cx="4.32" r="1.98"  id="connector2pin" cy="18.72"/>
      <circle stroke-width="1.44" stroke="black" fill="none" cx="25.92" r="1.98"  id="connector5pin" cy="18.72"/>
      <circle stroke-width="1.44" stroke="black" fill="none" cx="4.32" r="1.98"  id="connector3pin" cy="25.92"/>
      <circle stroke-width="1.44" stroke="black" fill="none" cx="25.92" r="1.98"  id="connector4pin" cy="25.92"/>
     </g>
    </g>
   </g>
  </g>
  <g partID="65721">
   <g transform="translate(206.751,102.429)">
    <g  id="copper1">
     <g  id="copper0">
      <rect stroke-width="1.44" stroke="black" width="3.96" x="2.34" fill="none" height="3.96"  id="square" y="2.34"/>
      <circle stroke-width="1.44" stroke="black" fill="none" cx="4.32" r="1.98"  id="connector0pin" cy="4.32"/>
      <circle stroke-width="1.44" stroke="black" fill="none" cx="25.92" r="1.98"  id="connector7pin" cy="4.32"/>
      <circle stroke-width="1.44" stroke="black" fill="none" cx="4.32" r="1.98"  id="connector1pin" cy="11.52"/>
      <circle stroke-width="1.44" stroke="black" fill="none" cx="25.92" r="1.98"  id="connector6pin" cy="11.52"/>
      <circle stroke-width="1.44" stroke="black" fill="none" cx="4.32" r="1.98"  id="connector2pin" cy="18.72"/>
      <circle stroke-width="1.44" stroke="black" fill="none" cx="25.92" r="1.98"  id="connector5pin" cy="18.72"/>
      <circle stroke-width="1.44" stroke="black" fill="none" cx="4.32" r="1.98"  id="connector3pin" cy="25.92"/>
      <circle stroke-width="1.44" stroke="black" fill="none" cx="25.92" r="1.98"  id="connector4pin" cy="25.92"/>
     </g>
    </g>
   </g>
  </g>
  <g partID="65751">
   <g transform="translate(265.765,39.0997)">
    <g  id="copper1">
     <g  id="copper0">
      <rect stroke-width="1.44" stroke="black" width="3.96" x="2.34" fill="none" height="3.96"  id="square" y="2.34"/>
      <circle stroke-width="1.44" stroke="black" fill="none" cx="4.32" r="1.98"  id="connector0pin" cy="4.32"/>
      <circle stroke-width="1.44" stroke="black" fill="none" cx="25.92" r="1.98"  id="connector7pin" cy="4.32"/>
      <circle stroke-width="1.44" stroke="black" fill="none" cx="4.32" r="1.98"  id="connector1pin" cy="11.52"/>
      <circle stroke-width="1.44" stroke="black" fill="none" cx="25.92" r="1.98"  id="connector6pin" cy="11.52"/>
      <circle stroke-width="1.44" stroke="black" fill="none" cx="4.32" r="1.98"  id="connector2pin" cy="18.72"/>
      <circle stroke-width="1.44" stroke="black" fill="none" cx="25.92" r="1.98"  id="connector5pin" cy="18.72"/>
      <circle stroke-width="1.44" stroke="black" fill="none" cx="4.32" r="1.98"  id="connector3pin" cy="25.92"/>
      <circle stroke-width="1.44" stroke="black" fill="none" cx="25.92" r="1.98"  id="connector4pin" cy="25.92"/>
     </g>
    </g>
   </g>
  </g>
  <g partID="66191">
   <g transform="translate(248.483,248.765)">
    <g  id="copper1">
     <g  id="copper0">
      <circle stroke-width="1.44" stroke="black" fill="none" cx="20.8462" r="1.98"  id="connector0pad" cy="15.6024"/>
      <circle stroke-width="1.44" stroke="black" fill="none" cx="2.42064" r="1.98"  id="connector1pad" cy="15.6024"/>
      <circle stroke-width="1.44" stroke="black" fill="none" cx="20.8462" r="1.98"  id="connector2pad" cy="2.84616"/>
      <circle stroke-width="1.44" stroke="black" fill="none" cx="2.42064" r="1.98"  id="connector3pad" cy="2.84616"/>
     </g>
    </g>
   </g>
  </g>
  <g partID="66171">
   <g transform="translate(218.69,248.765)">
    <g  id="copper1">
     <g  id="copper0">
      <circle stroke-width="1.44" stroke="black" fill="none" cx="20.8462" r="1.98"  id="connector0pad" cy="15.6024"/>
      <circle stroke-width="1.44" stroke="black" fill="none" cx="2.42064" r="1.98"  id="connector1pad" cy="15.6024"/>
      <circle stroke-width="1.44" stroke="black" fill="none" cx="20.8462" r="1.98"  id="connector2pad" cy="2.84616"/>
      <circle stroke-width="1.44" stroke="black" fill="none" cx="2.42064" r="1.98"  id="connector3pad" cy="2.84616"/>
     </g>
    </g>
   </g>
  </g>
  <g partID="66151">
   <g transform="translate(188.811,248.765)">
    <g  id="copper1">
     <g  id="copper0">
      <circle stroke-width="1.44" stroke="black" fill="none" cx="20.8462" r="1.98"  id="connector0pad" cy="15.6024"/>
      <circle stroke-width="1.44" stroke="black" fill="none" cx="2.42064" r="1.98"  id="connector1pad" cy="15.6024"/>
      <circle stroke-width="1.44" stroke="black" fill="none" cx="20.8462" r="1.98"  id="connector2pad" cy="2.84616"/>
      <circle stroke-width="1.44" stroke="black" fill="none" cx="2.42064" r="1.98"  id="connector3pad" cy="2.84616"/>
     </g>
    </g>
   </g>
  </g>
  <g partID="66131">
   <g transform="translate(160.21,248.765)">
    <g  id="copper1">
     <g  id="copper0">
      <circle stroke-width="1.44" stroke="black" fill="none" cx="20.8462" r="1.98"  id="connector0pad" cy="15.6024"/>
      <circle stroke-width="1.44" stroke="black" fill="none" cx="2.42064" r="1.98"  id="connector1pad" cy="15.6024"/>
      <circle stroke-width="1.44" stroke="black" fill="none" cx="20.8462" r="1.98"  id="connector2pad" cy="2.84616"/>
      <circle stroke-width="1.44" stroke="black" fill="none" cx="2.42064" r="1.98"  id="connector3pad" cy="2.84616"/>
     </g>
    </g>
   </g>
  </g>
  <g partID="66111">
   <g transform="translate(131.163,248.765)">
    <g  id="copper1">
     <g  id="copper0">
      <circle stroke-width="1.44" stroke="black" fill="none" cx="20.8462" r="1.98"  id="connector0pad" cy="15.6024"/>
      <circle stroke-width="1.44" stroke="black" fill="none" cx="2.42064" r="1.98"  id="connector1pad" cy="15.6024"/>
      <circle stroke-width="1.44" stroke="black" fill="none" cx="20.8462" r="1.98"  id="connector2pad" cy="2.84616"/>
      <circle stroke-width="1.44" stroke="black" fill="none" cx="2.42064" r="1.98"  id="connector3pad" cy="2.84616"/>
     </g>
    </g>
   </g>
  </g>
  <g partID="66091">
   <g transform="translate(101.928,248.765)">
    <g  id="copper1">
     <g  id="copper0">
      <circle stroke-width="1.44" stroke="black" fill="none" cx="20.8462" r="1.98"  id="connector0pad" cy="15.6024"/>
      <circle stroke-width="1.44" stroke="black" fill="none" cx="2.42064" r="1.98"  id="connector1pad" cy="15.6024"/>
      <circle stroke-width="1.44" stroke="black" fill="none" cx="20.8462" r="1.98"  id="connector2pad" cy="2.84616"/>
      <circle stroke-width="1.44" stroke="black" fill="none" cx="2.42064" r="1.98"  id="connector3pad" cy="2.84616"/>
     </g>
    </g>
   </g>
  </g>
  <g partID="66071">
   <g transform="translate(72.6434,248.765)">
    <g  id="copper1">
     <g  id="copper0">
      <circle stroke-width="1.44" stroke="black" fill="none" cx="20.8462" r="1.98"  id="connector0pad" cy="15.6024"/>
      <circle stroke-width="1.44" stroke="black" fill="none" cx="2.42064" r="1.98"  id="connector1pad" cy="15.6024"/>
      <circle stroke-width="1.44" stroke="black" fill="none" cx="20.8462" r="1.98"  id="connector2pad" cy="2.84616"/>
      <circle stroke-width="1.44" stroke="black" fill="none" cx="2.42064" r="1.98"  id="connector3pad" cy="2.84616"/>
     </g>
    </g>
   </g>
  </g>
  <g partID="66041">
   <g transform="translate(44.0948,248.765)">
    <g  id="copper1">
     <g  id="copper0">
      <circle stroke-width="1.44" stroke="black" fill="none" cx="20.8462" r="1.98"  id="connector0pad" cy="15.6024"/>
      <circle stroke-width="1.44" stroke="black" fill="none" cx="2.42064" r="1.98"  id="connector1pad" cy="15.6024"/>
      <circle stroke-width="1.44" stroke="black" fill="none" cx="20.8462" r="1.98"  id="connector2pad" cy="2.84616"/>
      <circle stroke-width="1.44" stroke="black" fill="none" cx="2.42064" r="1.98"  id="connector3pad" cy="2.84616"/>
     </g>
    </g>
   </g>
  </g>
  <g partID="84071">
   <g transform="translate(309.534,19.538)">
    <g transform="matrix(-1,0,0,-1,0,0)">
     <g  id="copper1">
      <!-- <rect width="55" x="10" y="15.5" fill="none" height="55" stroke="rgb(255, 191, 0)" stroke-width="20" />  -->
      <circle stroke-width="1.44" stroke="black" fill="none" cx="2.7" r="1.98"  id="connector0pin" cy="3.096"/>
      <circle stroke-width="1.44" stroke="black" fill="none" cx="31.5" r="1.98"  id="connector1pin" cy="3.096"/>
     </g>
    </g>
   </g>
  </g>
  <g partID="68101">
   <g transform="translate(85.5956,150.332)">
    <g  id="copper1">
     <!--  <rect width="55" x="10" y="35" fill="none" height="55" stroke="rgb(255, 191, 0)" stroke-width="20" /> -->
     <circle stroke-width="1.44" stroke="black" fill="none" cx="2.7" r="1.98"  id="connector0pin" cy="4.5"/>
     <circle stroke-width="1.44" stroke="black" fill="none" cx="9.9" r="1.98"  id="connector1pin" cy="4.5"/>
    </g>
   </g>
  </g>
  <g partID="85231">
   <g transform="translate(244.655,52.6434)">
    <g transform="matrix(0,1,-1,0,0,0)">
     <g  id="copper1">
      <!-- <rect width="55" x="10" y="15.5" fill="none" height="55" stroke="rgb(255, 191, 0)" stroke-width="20" />  -->
      <circle stroke-width="1.44" stroke="black" fill="none" cx="2.7" r="1.98"  id="connector0pin" cy="3.096"/>
      <circle stroke-width="1.44" stroke="black" fill="none" cx="31.5" r="1.98"  id="connector1pin" cy="3.096"/>
     </g>
    </g>
   </g>
  </g>
  <g partID="85221">
   <g transform="translate(253.898,68.1712)">
    <g transform="matrix(0,-1,1,0,0,0)">
     <g  id="copper1">
      <!--  <rect width="55" x="10" y="35" fill="none" height="55" stroke="rgb(255, 191, 0)" stroke-width="20" /> -->
      <circle stroke-width="1.44" stroke="black" fill="none" cx="2.7" r="1.98"  id="connector0pin" cy="4.5"/>
      <circle stroke-width="1.44" stroke="black" fill="none" cx="9.9" r="1.98"  id="connector1pin" cy="4.5"/>
     </g>
    </g>
   </g>
  </g>
  <g partID="71141">
   <g transform="translate(103.733,105.501)">
    <g  id="copper1">
     <!-- <rect width="55" x="10" y="15.5" fill="none" height="55" stroke="rgb(255, 191, 0)" stroke-width="20" />  -->
     <circle stroke-width="1.44" stroke="black" fill="none" cx="2.7" r="1.98"  id="connector0pin" cy="3.096"/>
     <circle stroke-width="1.44" stroke="black" fill="none" cx="31.5" r="1.98"  id="connector1pin" cy="3.096"/>
    </g>
   </g>
  </g>
  <g partID="71131">
   <g transform="translate(111.333,174.346)">
    <g transform="matrix(0,-1,1,0,0,0)">
     <g  id="copper1">
      <!--  <rect width="55" x="10" y="35" fill="none" height="55" stroke="rgb(255, 191, 0)" stroke-width="20" /> -->
      <circle stroke-width="1.44" stroke="black" fill="none" cx="2.7" r="1.98"  id="connector0pin" cy="4.5"/>
      <circle stroke-width="1.44" stroke="black" fill="none" cx="9.9" r="1.98"  id="connector1pin" cy="4.5"/>
     </g>
    </g>
   </g>
  </g>
  <g partID="70311">
   <g transform="translate(69.7652,169.121)">
    <g  id="copper1">
     <!-- <rect width="55" x="10" y="15.5" fill="none" height="55" stroke="rgb(255, 191, 0)" stroke-width="20" />  -->
     <circle stroke-width="1.44" stroke="black" fill="none" cx="2.7" r="1.98"  id="connector0pin" cy="3.096"/>
     <circle stroke-width="1.44" stroke="black" fill="none" cx="31.5" r="1.98"  id="connector1pin" cy="3.096"/>
    </g>
   </g>
  </g>
  <g partID="70281">
   <g transform="translate(103.827,122.613)">
    <g  id="copper1">
     <!-- <rect width="55" x="10" y="15.5" fill="none" height="55" stroke="rgb(255, 191, 0)" stroke-width="20" />  -->
     <circle stroke-width="1.44" stroke="black" fill="none" cx="2.7" r="1.98"  id="connector0pin" cy="3.096"/>
     <circle stroke-width="1.44" stroke="black" fill="none" cx="31.5" r="1.98"  id="connector1pin" cy="3.096"/>
    </g>
   </g>
  </g>
  <g partID="82931">
   <g transform="translate(228.418,162.289)">
    <g transform="matrix(0,-1,1,0,0,0)">
     <g  id="copper1">
      <!--  <rect width="55" x="10" y="35" fill="none" height="55" stroke="rgb(255, 191, 0)" stroke-width="20" /> -->
      <circle stroke-width="1.44" stroke="black" fill="none" cx="2.7" r="1.98"  id="connector0pin" cy="4.5"/>
      <circle stroke-width="1.44" stroke="black" fill="none" cx="9.9" r="1.98"  id="connector1pin" cy="4.5"/>
     </g>
    </g>
   </g>
  </g>
  <g partID="73441">
   <g transform="translate(114.788,151.861)">
    <g transform="matrix(0,-1,1,0,0,0)">
     <g  id="copper1">
      <!--  <rect width="55" x="10" y="35" fill="none" height="55" stroke="rgb(255, 191, 0)" stroke-width="20" /> -->
      <circle stroke-width="1.44" stroke="black" fill="none" cx="2.7" r="1.98"  id="connector0pin" cy="4.5"/>
      <circle stroke-width="1.44" stroke="black" fill="none" cx="9.9" r="1.98"  id="connector1pin" cy="4.5"/>
     </g>
    </g>
   </g>
  </g>
  <g partID="72711">
   <g transform="translate(33.3084,174.609)">
    <g transform="matrix(0,-1,1,0,0,0)">
     <g  id="copper1">
      <!-- <rect width="55" x="10" y="15.5" fill="none" height="55" stroke="rgb(255, 191, 0)" stroke-width="20" />  -->
      <circle stroke-width="1.44" stroke="black" fill="none" cx="2.7" r="1.98"  id="connector0pin" cy="3.096"/>
      <circle stroke-width="1.44" stroke="black" fill="none" cx="31.5" r="1.98"  id="connector1pin" cy="3.096"/>
     </g>
    </g>
   </g>
  </g>
  <g partID="84231">
   <g transform="translate(311.41,27.9729)">
    <g transform="matrix(0,-1,1,0,0,0)">
     <g  id="copper1">
      <!--  <rect width="55" x="10" y="35" fill="none" height="55" stroke="rgb(255, 191, 0)" stroke-width="20" /> -->
      <circle stroke-width="1.44" stroke="black" fill="none" cx="2.7" r="1.98"  id="connector0pin" cy="4.5"/>
      <circle stroke-width="1.44" stroke="black" fill="none" cx="9.9" r="1.98"  id="connector1pin" cy="4.5"/>
     </g>
    </g>
   </g>
  </g>
  <g partID="83091">
   <g transform="translate(237.58,124.029)">
    <g transform="matrix(0,-1,1,0,0,0)">
     <g  id="copper1">
      <!--  <rect width="55" x="10" y="35" fill="none" height="55" stroke="rgb(255, 191, 0)" stroke-width="20" /> -->
      <circle stroke-width="1.44" stroke="black" fill="none" cx="2.7" r="1.98"  id="connector0pin" cy="4.5"/>
      <circle stroke-width="1.44" stroke="black" fill="none" cx="9.9" r="1.98"  id="connector1pin" cy="4.5"/>
     </g>
    </g>
   </g>
  </g>
  <g partID="80941">
   <g transform="translate(294.025,109.437)">
    <g transform="matrix(0,1,-1,0,0,0)">
     <g  id="copper1">
      <!--  <rect width="55" x="10" y="35" fill="none" height="55" stroke="rgb(255, 191, 0)" stroke-width="20" /> -->
      <circle stroke-width="1.44" stroke="black" fill="none" cx="2.7" r="1.98"  id="connector0pin" cy="4.5"/>
      <circle stroke-width="1.44" stroke="black" fill="none" cx="9.9" r="1.98"  id="connector1pin" cy="4.5"/>
     </g>
    </g>
   </g>
  </g>
  <g partID="78111">
   <g transform="translate(128.23,169.121)">
    <g  id="copper1">
     <!-- <rect width="55" x="10" y="15.5" fill="none" height="55" stroke="rgb(255, 191, 0)" stroke-width="20" />  -->
     <circle stroke-width="1.44" stroke="black" fill="none" cx="2.7" r="1.98"  id="connector0pin" cy="3.096"/>
     <circle stroke-width="1.44" stroke="black" fill="none" cx="31.5" r="1.98"  id="connector1pin" cy="3.096"/>
    </g>
   </g>
  </g>
  <g partID="73091">
   <g transform="translate(42.29,150.597)">
    <g transform="matrix(0,-1,1,0,0,0)">
     <g  id="copper1">
      <!-- <rect width="55" x="10" y="15.5" fill="none" height="55" stroke="rgb(255, 191, 0)" stroke-width="20" />  -->
      <circle stroke-width="1.44" stroke="black" fill="none" cx="2.7" r="1.98"  id="connector0pin" cy="3.096"/>
      <circle stroke-width="1.44" stroke="black" fill="none" cx="31.5" r="1.98"  id="connector1pin" cy="3.096"/>
     </g>
    </g>
   </g>
  </g>
  <g partID="75891">
   <g transform="translate(94.6156,132.749)">
    <g transform="matrix(0,1,-1,0,0,0)">
     <g  id="copper1">
      <circle stroke-width="1.44" stroke="black" fill="none" cx="2.88" r="1.8"  id="connector0pin" cy="2.88"/>
      <circle stroke-width="1.44" stroke="black" fill="none" cx="10.0933" r="1.8"  id="connector1pin" cy="2.88"/>
     </g>
    </g>
   </g>
  </g>
  <g partID="77661">
   <g transform="translate(268.874,99.4509)">
    <g  id="copper1">
     <!-- <rect width="55" x="10" y="15.5" fill="none" height="55" stroke="rgb(255, 191, 0)" stroke-width="20" />  -->
     <circle stroke-width="1.44" stroke="black" fill="none" cx="2.7" r="1.98"  id="connector0pin" cy="3.096"/>
     <circle stroke-width="1.44" stroke="black" fill="none" cx="31.5" r="1.98"  id="connector1pin" cy="3.096"/>
    </g>
   </g>
  </g>
  <g partID="78791">
   <g transform="translate(175.166,129.084)">
    <g transform="matrix(-1,0,0,-1,0,0)">
     <g  id="copper1">
      <!-- <rect width="55" x="10" y="15.5" fill="none" height="55" stroke="rgb(255, 191, 0)" stroke-width="20" />  -->
      <circle stroke-width="1.44" stroke="black" fill="none" cx="2.7" r="1.98"  id="connector0pin" cy="3.096"/>
      <circle stroke-width="1.44" stroke="black" fill="none" cx="31.5" r="1.98"  id="connector1pin" cy="3.096"/>
     </g>
    </g>
   </g>
  </g>
  <g partID="80111">
   <g transform="translate(161.723,155.396)">
    <g transform="matrix(0,-1,1,0,0,0)">
     <g  id="copper1">
      <g  id="copper0">
       <rect stroke-width="1.44" width="3.96" stroke="black" x="1.98" fill="none" height="3.96"  y="5.58" id="rect11"/>
       <circle stroke-width="1.44" stroke="black" fill="none" cx="3.96" r="1.98"  id="connector0pin" cy="7.56"/>
       <circle stroke-width="1.44" stroke="black" fill="none" cx="11.16" r="1.98"  id="connector1pin" cy="7.56"/>
      </g>
     </g>
    </g>
   </g>
  </g>
  <g partID="82051">
   <g transform="translate(267.066,155.238)">
    <g  id="copper1">
     <!-- <rect width="55" x="10" y="15.5" fill="none" height="55" stroke="rgb(255, 191, 0)" stroke-width="20" />  -->
     <circle stroke-width="1.44" stroke="black" fill="none" cx="2.7" r="1.98"  id="connector0pin" cy="3.096"/>
     <circle stroke-width="1.44" stroke="black" fill="none" cx="31.5" r="1.98"  id="connector1pin" cy="3.096"/>
    </g>
   </g>
  </g>
  <g partID="82221">
   <g transform="translate(301.266,172.544)">
    <g transform="matrix(-1,0,0,-1,0,0)">
     <g  id="copper1">
      <!-- <rect width="55" x="10" y="15.5" fill="none" height="55" stroke="rgb(255, 191, 0)" stroke-width="20" />  -->
      <circle stroke-width="1.44" stroke="black" fill="none" cx="2.7" r="1.98"  id="connector0pin" cy="3.096"/>
      <circle stroke-width="1.44" stroke="black" fill="none" cx="31.5" r="1.98"  id="connector1pin" cy="3.096"/>
     </g>
    </g>
   </g>
  </g>
  <g partID="83981">
   <g transform="translate(342.226,17.885)">
    <g transform="matrix(-1,0,0,-1,0,0)">
     <g  id="copper1">
      <g  id="copper0">
       <rect stroke-width="1.44" width="3.96" stroke="black" x="1.98" fill="none" height="3.96"  y="5.58" id="rect11"/>
       <circle stroke-width="1.44" stroke="black" fill="none" cx="3.96" r="1.98"  id="connector0pin" cy="7.56"/>
       <circle stroke-width="1.44" stroke="black" fill="none" cx="11.16" r="1.98"  id="connector1pin" cy="7.56"/>
      </g>
     </g>
    </g>
   </g>
  </g>
  <g partID="82681">
   <g transform="translate(242.406,152.033)">
    <g  id="copper1">
     <g  id="copper0">
      <rect stroke-width="1.44" width="3.96" stroke="black" x="1.98" fill="none" height="3.96"  y="5.58" id="rect11"/>
      <circle stroke-width="1.44" stroke="black" fill="none" cx="3.96" r="1.98"  id="connector0pin" cy="7.56"/>
      <circle stroke-width="1.44" stroke="black" fill="none" cx="11.16" r="1.98"  id="connector1pin" cy="7.56"/>
     </g>
    </g>
   </g>
  </g>
  <g partID="83531">
   <g transform="translate(351.288,7.25783)">
    <g  id="copper1">
     <g  id="copper0">
      <rect stroke-width="1.44" width="4.176" stroke="black" x="2.952" fill="none" height="4.176"  id="square" y="2.952"/>
      <circle stroke-width="1.44" stroke="black" fill="none" cx="5.04" r="2.088"  id="connector0pin" cy="5.04"/>
      <circle stroke-width="1.44" stroke="black" fill="none" cx="5.04" r="2.088"  id="connector1pin" cy="12.24"/>
     </g>
    </g>
   </g>
  </g>
  <g partID="87961">
   <g transform="translate(198.988,104.157)">
    <g transform="matrix(0,1,-1,0,0,0)">
     <g  id="copper1">
      <circle stroke-width="1.44" stroke="black" fill="none" cx="2.88" r="1.8"  id="connector0pin" cy="2.88"/>
      <circle stroke-width="1.44" stroke="black" fill="none" cx="10.0933" r="1.8"  id="connector1pin" cy="2.88"/>
     </g>
    </g>
   </g>
  </g>
  <g partID="84761">
   <g transform="translate(275.367,25.8005)">
    <g  id="copper1">
     <circle stroke-width="1.44" stroke="black" fill="none" cx="2.88" r="1.8"  id="connector0pin" cy="2.88"/>
     <circle stroke-width="1.44" stroke="black" fill="none" cx="10.0933" r="1.8"  id="connector1pin" cy="2.88"/>
    </g>
   </g>
  </g>
  <g partID="87271">
   <g transform="translate(351.294,224.44)">
    <g  id="copper1">
     <!-- <rect width="55" x="10" y="10" fill="none" height="55" stroke="rgb(255, 191, 0)" stroke-width="20" /> -->
     <circle stroke-width="1.44" stroke="black" fill="none" cx="2.7" r="1.98"  id="connector0pin" cy="2.7"/>
     <circle stroke-width="1.44" stroke="black" fill="none" cx="24.3" r="1.98"  id="connector1pin" cy="2.7"/>
    </g>
   </g>
  </g>
  <g partID="87321">
   <g transform="translate(379.796,216.061)">
    <g transform="matrix(-1,0,0,-1,0,0)">
     <g  id="copper1">
      <!-- <rect width="55" x="10" y="15.5" fill="none" height="55" stroke="rgb(255, 191, 0)" stroke-width="20" />  -->
      <circle stroke-width="1.44" stroke="black" fill="none" cx="2.7" r="1.98"  id="connector0pin" cy="3.096"/>
      <circle stroke-width="1.44" stroke="black" fill="none" cx="31.5" r="1.98"  id="connector1pin" cy="3.096"/>
     </g>
    </g>
   </g>
  </g>
  <g partID="87931">
   <g transform="translate(351.413,237.385)">
    <g  id="copper1">
     <!-- <rect width="55" x="10" y="10" fill="none" height="55" stroke="rgb(255, 191, 0)" stroke-width="20" /> -->
     <circle stroke-width="1.44" stroke="black" fill="none" cx="2.7" r="1.98"  id="connector0pin" cy="2.7"/>
     <circle stroke-width="1.44" stroke="black" fill="none" cx="24.3" r="1.98"  id="connector1pin" cy="2.7"/>
    </g>
   </g>
  </g>
  <g partID="88301">
   <g transform="translate(218.7,141.518)">
    <g transform="matrix(-1,0,0,-1,0,0)">
     <g  id="copper1">
      <!-- <rect width="55" x="10" y="15.5" fill="none" height="55" stroke="rgb(255, 191, 0)" stroke-width="20" />  -->
      <circle stroke-width="1.44" stroke="black" fill="none" cx="2.7" r="1.98"  id="connector0pin" cy="3.096"/>
      <circle stroke-width="1.44" stroke="black" fill="none" cx="31.5" r="1.98"  id="connector1pin" cy="3.096"/>
     </g>
    </g>
   </g>
  </g>
  <g partID="18433891">
   <g transform="translate(66.4742,195.855)">
    <g transform="matrix(0,1,-1,0,0,0)">
     <g  id="copper1">
      <g  id="copper0">
       <circle stroke-width="2.088" stroke="black" fill="none" cx="3.528" r="2.52"  id="connector2pad" cy="17.928"/>
       <rect stroke-width="2.088" stroke="black" width="5.04" x="1.008" fill="none" height="5.04"  y="1.008"/>
       <circle stroke-width="2.088" stroke="black" fill="none" cx="3.528" r="2.52"  id="connector0pad" cy="3.528"/>
       <circle stroke-width="2.088" stroke="black" fill="none" cx="17.928" r="2.52"  id="connector1pad" cy="10.728"/>
      </g>
     </g>
    </g>
   </g>
  </g>
  <g partID="18434111">
   <g transform="translate(241.07,196.147)">
    <g transform="matrix(0,1,-1,0,0,0)">
     <g  id="copper1">
      <g  id="copper0">
       <circle stroke-width="2.088" stroke="black" fill="none" cx="3.528" r="2.52"  id="connector2pad" cy="17.928"/>
       <rect stroke-width="2.088" stroke="black" width="5.04" x="1.008" fill="none" height="5.04"  y="1.008"/>
       <circle stroke-width="2.088" stroke="black" fill="none" cx="3.528" r="2.52"  id="connector0pad" cy="3.528"/>
       <circle stroke-width="2.088" stroke="black" fill="none" cx="17.928" r="2.52"  id="connector1pad" cy="10.728"/>
      </g>
     </g>
    </g>
   </g>
  </g>
  <g partID="18434311">
   <g transform="translate(271.75,196.732)">
    <g transform="matrix(0,1,-1,0,0,0)">
     <g  id="copper1">
      <g  id="copper0">
       <circle stroke-width="2.088" stroke="black" fill="none" cx="3.528" r="2.52"  id="connector2pad" cy="17.928"/>
       <rect stroke-width="2.088" stroke="black" width="5.04" x="1.008" fill="none" height="5.04"  y="1.008"/>
       <circle stroke-width="2.088" stroke="black" fill="none" cx="3.528" r="2.52"  id="connector0pad" cy="3.528"/>
       <circle stroke-width="2.088" stroke="black" fill="none" cx="17.928" r="2.52"  id="connector1pad" cy="10.728"/>
      </g>
     </g>
    </g>
   </g>
  </g>
  <g partID="18434511">
   <g transform="translate(211.191,196.44)">
    <g transform="matrix(0,1,-1,0,0,0)">
     <g  id="copper1">
      <g  id="copper0">
       <circle stroke-width="2.088" stroke="black" fill="none" cx="3.528" r="2.52"  id="connector2pad" cy="17.928"/>
       <rect stroke-width="2.088" stroke="black" width="5.04" x="1.008" fill="none" height="5.04"  y="1.008"/>
       <circle stroke-width="2.088" stroke="black" fill="none" cx="3.528" r="2.52"  id="connector0pad" cy="3.528"/>
       <circle stroke-width="2.088" stroke="black" fill="none" cx="17.928" r="2.52"  id="connector1pad" cy="10.728"/>
      </g>
     </g>
    </g>
   </g>
  </g>
  <g partID="18434711">
   <g transform="translate(182.589,195.855)">
    <g transform="matrix(0,1,-1,0,0,0)">
     <g  id="copper1">
      <g  id="copper0">
       <circle stroke-width="2.088" stroke="black" fill="none" cx="3.528" r="2.52"  id="connector2pad" cy="17.928"/>
       <rect stroke-width="2.088" stroke="black" width="5.04" x="1.008" fill="none" height="5.04"  y="1.008"/>
       <circle stroke-width="2.088" stroke="black" fill="none" cx="3.528" r="2.52"  id="connector0pad" cy="3.528"/>
       <circle stroke-width="2.088" stroke="black" fill="none" cx="17.928" r="2.52"  id="connector1pad" cy="10.728"/>
      </g>
     </g>
    </g>
   </g>
  </g>
  <g partID="18434911">
   <g transform="translate(153.543,195.271)">
    <g transform="matrix(0,1,-1,0,0,0)">
     <g  id="copper1">
      <g  id="copper0">
       <circle stroke-width="2.088" stroke="black" fill="none" cx="3.528" r="2.52"  id="connector2pad" cy="17.928"/>
       <rect stroke-width="2.088" stroke="black" width="5.04" x="1.008" fill="none" height="5.04"  y="1.008"/>
       <circle stroke-width="2.088" stroke="black" fill="none" cx="3.528" r="2.52"  id="connector0pad" cy="3.528"/>
       <circle stroke-width="2.088" stroke="black" fill="none" cx="17.928" r="2.52"  id="connector1pad" cy="10.728"/>
      </g>
     </g>
    </g>
   </g>
  </g>
  <g partID="18435111">
   <g transform="translate(124.307,195.855)">
    <g transform="matrix(0,1,-1,0,0,0)">
     <g  id="copper1">
      <g  id="copper0">
       <circle stroke-width="2.088" stroke="black" fill="none" cx="3.528" r="2.52"  id="connector2pad" cy="17.928"/>
       <rect stroke-width="2.088" stroke="black" width="5.04" x="1.008" fill="none" height="5.04"  y="1.008"/>
       <circle stroke-width="2.088" stroke="black" fill="none" cx="3.528" r="2.52"  id="connector0pad" cy="3.528"/>
       <circle stroke-width="2.088" stroke="black" fill="none" cx="17.928" r="2.52"  id="connector1pad" cy="10.728"/>
      </g>
     </g>
    </g>
   </g>
  </g>
  <g partID="18435311">
   <g transform="translate(95.0228,196.44)">
    <g transform="matrix(0,1,-1,0,0,0)">
     <g  id="copper1">
      <g  id="copper0">
       <circle stroke-width="2.088" stroke="black" fill="none" cx="3.528" r="2.52"  id="connector2pad" cy="17.928"/>
       <rect stroke-width="2.088" stroke="black" width="5.04" x="1.008" fill="none" height="5.04"  y="1.008"/>
       <circle stroke-width="2.088" stroke="black" fill="none" cx="3.528" r="2.52"  id="connector0pad" cy="3.528"/>
       <circle stroke-width="2.088" stroke="black" fill="none" cx="17.928" r="2.52"  id="connector1pad" cy="10.728"/>
      </g>
     </g>
    </g>
   </g>
  </g>
  <g partID="18442401">
   <g transform="translate(406.54,137.648)">
    <g transform="matrix(0,1,-1,0,0,0)">
     <g  id="copper1">
      <g  id="copper0">
       <rect stroke-width="1.44" width="4.176" stroke="black" x="2.952" fill="none" height="4.176"  id="square" y="2.952"/>
       <circle stroke-width="1.44" stroke="black" fill="none" cx="5.04" r="2.088"  id="connector0pin" cy="5.04"/>
       <circle stroke-width="1.44" stroke="black" fill="none" cx="5.04" r="2.088"  id="connector1pin" cy="19.44"/>
       <circle stroke-width="1.44" stroke="black" fill="none" cx="5.04" r="2.088"  id="connector2pin" cy="33.84"/>
      </g>
     </g>
    </g>
   </g>
  </g>
  <g partID="18443021">
   <g transform="translate(161.251,113.76)">
    <g transform="matrix(0,-1,1,0,0,0)">
     <g  id="copper1">
      <g  id="copper0">
       <circle stroke-width="2.088" stroke="black" fill="none" cx="3.528" r="2.52"  id="connector2pad" cy="17.928"/>
       <rect stroke-width="2.088" stroke="black" width="5.04" x="1.008" fill="none" height="5.04"  y="1.008"/>
       <circle stroke-width="2.088" stroke="black" fill="none" cx="3.528" r="2.52"  id="connector0pad" cy="3.528"/>
       <circle stroke-width="2.088" stroke="black" fill="none" cx="17.928" r="2.52"  id="connector1pad" cy="10.728"/>
      </g>
     </g>
    </g>
   </g>
  </g>
  <g partID="174690">
   <line stroke-width="3.456" stroke-linecap="round" x1="128.128" stroke="black" y1="150.886" y2="162.327" x2="117.754"/>
  </g>
  <g partID="174600">
   <line stroke-width="3.456" stroke-linecap="round" x1="128.128" stroke="black" y1="144.52" y2="150.886" x2="128.128"/>
  </g>
  <g partID="169890">
   <line stroke-width="3.456" stroke-linecap="round" x1="128.128" stroke="black" y1="144.975" y2="145.103" x2="132.231"/>
  </g>
  <g partID="169740">
   <line stroke-width="3.456" stroke-linecap="round" x1="132.231" stroke="black" y1="145.102" y2="144.997" x2="128.895"/>
  </g>
  <g partID="169730">
   <line stroke-width="3.456" stroke-linecap="round" x1="128.896" stroke="black" y1="144.997" y2="144.52" x2="128.128"/>
  </g>
  <g partID="169330">
   <line stroke-width="3.456" stroke-linecap="round" x1="76.9994" stroke="black" y1="196.893" y2="187.855" x2="76.7188"/>
  </g>
  <g partID="18443550">
   <line stroke-width="3.456" stroke-linecap="round" x1="95.6042" stroke="black" y1="166.77" y2="157.692" x2="95.5216"/>
  </g>
  <g partID="169320">
   <line stroke-width="3.456" stroke-linecap="round" x1="76.7188" stroke="black" y1="187.855" y2="166.77" x2="95.6042"/>
  </g>
  <g partID="174510">
   <line stroke-width="3.456" stroke-linecap="round" x1="127.9" stroke="black" y1="128.377" y2="144.975" x2="128.128"/>
  </g>
  <g partID="171530">
   <line stroke-width="3.456" stroke-linecap="round" x1="216.644" stroke="black" y1="123.341" y2="126.438" x2="213.198"/>
  </g>
  <g partID="171420">
   <line stroke-width="3.456" stroke-linecap="round" x1="222.243" stroke="black" y1="154.602" y2="152.081" x2="180.77"/>
  </g>
  <g partID="171330">
   <line stroke-width="3.456" stroke-linecap="round" x1="270.157" stroke="black" y1="104.042" y2="154.602" x2="222.243"/>
  </g>
  <g partID="18431000">
   <line stroke-width="3.456" stroke-linecap="round" x1="177.567" stroke="black" y1="148.459" y2="145.478" x2="174.201"/>
  </g>
  <g partID="18430910">
   <line stroke-width="3.456" stroke-linecap="round" x1="174.201" stroke="black" y1="145.478" y2="144.936" x2="172.056"/>
  </g>
  <g partID="171320">
   <line stroke-width="3.456" stroke-linecap="round" x1="180.77" stroke="black" y1="152.081" y2="148.459" x2="177.567"/>
  </g>
  <g partID="171150">
   <line stroke-width="3.456" stroke-linecap="round" x1="225.114" stroke="black" y1="141.474" y2="111.676" x2="227.064"/>
  </g>
  <g partID="171000">
   <line stroke-width="3.456" stroke-linecap="round" x1="227.064" stroke="black" y1="111.676" y2="108.637" x2="230.522"/>
  </g>
  <g partID="170850">
   <line stroke-width="3.456" stroke-linecap="round" x1="218.938" stroke="black" y1="147.573" y2="141.474" x2="225.114"/>
  </g>
  <g partID="170700">
   <line stroke-width="3.456" stroke-linecap="round" x1="183.972" stroke="black" y1="145.676" y2="147.573" x2="218.938"/>
  </g>
  <g partID="170550">
   <line stroke-width="3.456" stroke-linecap="round" x1="157.947" stroke="black" y1="137.855" y2="137.183" x2="170.45"/>
  </g>
  <g partID="18430740">
   <line stroke-width="3.456" stroke-linecap="round" x1="177.409" stroke="black" y1="137.459" y2="145.676" x2="183.972"/>
  </g>
  <g partID="170540">
   <line stroke-width="3.456" stroke-linecap="round" x1="170.45" stroke="black" y1="137.183" y2="137.459" x2="177.409"/>
  </g>
  <g partID="170430">
   <line stroke-width="3.456" stroke-linecap="round" x1="307.455" stroke="black" y1="150.391" y2="184.293" x2="307.66"/>
  </g>
  <g partID="170340">
   <line stroke-width="3.456" stroke-linecap="round" x1="307.66" stroke="black" y1="184.293" y2="183.882" x2="108.979"/>
  </g>
  <g partID="170250">
   <line stroke-width="3.456" stroke-linecap="round" x1="108.979" stroke="black" y1="183.882" y2="152.241" x2="108.362"/>
  </g>
  <g partID="170160">
   <line stroke-width="3.456" stroke-linecap="round" x1="327.664" stroke="black" y1="131.25" y2="150.391" x2="307.455"/>
  </g>
  <g partID="170150">
   <line stroke-width="3.456" stroke-linecap="round" x1="108.362" stroke="black" y1="152.241" y2="136.957" x2="93.0658"/>
  </g>
  <g partID="170040">
   <line stroke-width="3.456" stroke-linecap="round" x1="154.389" stroke="black" y1="158.155" y2="144.997" x2="140.398"/>
  </g>
  <g partID="170030">
   <line stroke-width="3.456" stroke-linecap="round" x1="140.399" stroke="black" y1="144.997" y2="145.109" x2="136.35"/>
  </g>
  <g partID="169900">
   <line stroke-width="3.456" stroke-linecap="round" x1="107.948" stroke="black" y1="109.993" y2="128.378" x2="127.901"/>
  </g>
  <g partID="174440">
   <line stroke-width="3.456" stroke-linecap="round" x1="362.556" stroke="black" y1="110.782" y2="91.1869" x2="339.399"/>
  </g>
  <g partID="174360">
   <line stroke-width="3.456" stroke-linecap="round" x1="343.47" stroke="black" y1="136.994" y2="137.028" x2="331.219"/>
  </g>
  <g partID="174250">
   <line stroke-width="3.456" stroke-linecap="round" x1="361.714" stroke="black" y1="247.808" y2="248.1" x2="417.809"/>
  </g>
  <g partID="174160">
   <line stroke-width="3.456" stroke-linecap="round" x1="417.809" stroke="black" y1="248.1" y2="99.3309" x2="419.56"/>
  </g>
  <g partID="174070">
   <line stroke-width="3.456" stroke-linecap="round" x1="419.56" stroke="black" y1="99.3309" y2="31.3845" x2="360.012"/>
  </g>
  <g partID="173980">
   <line stroke-width="3.456" stroke-linecap="round" x1="360.012" stroke="black" y1="31.3845" y2="30.8756" x2="305.298"/>
  </g>
  <g partID="173890">
   <line stroke-width="3.456" stroke-linecap="round" x1="305.298" stroke="black" y1="30.8757" y2="23.2413" x2="296.9"/>
  </g>
  <g partID="173800">
   <line stroke-width="3.456" stroke-linecap="round" x1="296.9" stroke="black" y1="23.2413" y2="23.4958" x2="268.653"/>
  </g>
  <g partID="173710">
   <line stroke-width="3.456" stroke-linecap="round" x1="268.653" stroke="black" y1="23.4958" y2="63.6353" x2="212.176"/>
  </g>
  <g partID="173620">
   <line stroke-width="3.456" stroke-linecap="round" x1="356.119" stroke="black" y1="242.123" y2="247.808" x2="361.714"/>
  </g>
  <g partID="173610">
   <line stroke-width="3.456" stroke-linecap="round" x1="212.176" stroke="black" y1="63.6353" y2="103.89" x2="211.144"/>
  </g>
  <g partID="18441490">
   <line stroke-width="3.456" stroke-linecap="round" x1="335.419" stroke="black" y1="198.432" y2="177.104" x2="360.837"/>
  </g>
  <g partID="18441560">
   <line stroke-width="3.456" stroke-linecap="round" x1="360.837" stroke="black" y1="177.104" y2="110.782" x2="362.556"/>
  </g>
  <g partID="173520">
   <line stroke-width="3.456" stroke-linecap="round" x1="334.835" stroke="black" y1="210.119" y2="198.432" x2="335.419"/>
  </g>
  <g partID="173450">
   <line stroke-width="3.456" stroke-linecap="round" x1="339.399" stroke="black" y1="91.1869" y2="90.9325" x2="268.399"/>
  </g>
  <g partID="173380">
   <line stroke-width="3.456" stroke-linecap="round" x1="351.855" stroke="black" y1="225.24" y2="210.119" x2="334.835"/>
  </g>
  <g partID="173370">
   <line stroke-width="3.456" stroke-linecap="round" x1="268.399" stroke="black" y1="90.9325" y2="112.767" x2="243.626"/>
  </g>
  <g partID="173280">
   <line stroke-width="3.456" stroke-linecap="round" x1="217.503" stroke="black" y1="113.836" y2="113.913" x2="213.131"/>
  </g>
  <g partID="173210">
   <line stroke-width="3.456" stroke-linecap="round" x1="217.757" stroke="black" y1="95.5133" y2="113.836" x2="217.503"/>
  </g>
  <g partID="173140">
   <line stroke-width="3.456" stroke-linecap="round" x1="249.058" stroke="black" y1="67.0117" y2="95.5136" x2="217.757"/>
  </g>
  <g partID="173070">
   <line stroke-width="3.456" stroke-linecap="round" x1="249.058" stroke="black" y1="47.1621" y2="67.0116" x2="249.058"/>
  </g>
  <g partID="173000">
   <line stroke-width="3.456" stroke-linecap="round" x1="262.8" stroke="black" y1="35.2013" y2="47.1619" x2="249.058"/>
  </g>
  <g partID="172930">
   <line stroke-width="3.456" stroke-linecap="round" x1="354.922" stroke="black" y1="36.7285" y2="35.2017" x2="262.8"/>
  </g>
  <g partID="172860">
   <line stroke-width="3.456" stroke-linecap="round" x1="413.961" stroke="black" y1="102.13" y2="36.7287" x2="354.922"/>
  </g>
  <g partID="172790">
   <line stroke-width="3.456" stroke-linecap="round" x1="413.198" stroke="black" y1="169.567" y2="102.13" x2="413.961"/>
  </g>
  <g partID="172720">
   <line stroke-width="3.456" stroke-linecap="round" x1="350.259" stroke="black" y1="210.884" y2="170.331" x2="388.513"/>
  </g>
  <g partID="172710">
   <line stroke-width="3.456" stroke-linecap="round" x1="388.513" stroke="black" y1="170.331" y2="169.568" x2="413.198"/>
  </g>
  <g partID="172500">
   <line stroke-width="3.456" stroke-linecap="round" x1="256.77" stroke="black" y1="91.4569" y2="91.7676" x2="240.44"/>
  </g>
  <g partID="172310">
   <line stroke-width="3.456" stroke-linecap="round" x1="240.44" stroke="black" y1="91.7676" y2="106.987" x2="222.636"/>
  </g>
  <g partID="172120">
   <line stroke-width="3.456" stroke-linecap="round" x1="222.636" stroke="black" y1="106.987" y2="122.865" x2="221.994"/>
  </g>
  <g partID="171730">
   <line stroke-width="3.456" stroke-linecap="round" x1="221.994" stroke="black" y1="122.865" y2="123.341" x2="216.644"/>
  </g>
  <g partID="171540">
   <line stroke-width="3.456" stroke-linecap="round" x1="258.219" stroke="black" y1="68.3256" y2="91.4569" x2="256.77"/>
  </g>
  <g partID="176150">
   <line stroke-width="3.456" stroke-linecap="round" x1="26.8892" stroke="black" y1="108.966" y2="162.326" x2="27.7333"/>
  </g>
  <g partID="176140">
   <line stroke-width="3.456" stroke-linecap="round" x1="27.7332" stroke="black" y1="162.325" y2="161.843" x2="52.6923"/>
  </g>
  <g partID="174370">
   <line stroke-width="3.456" stroke-linecap="round" x1="349.29" stroke="black" y1="131.277" y2="136.994" x2="343.47"/>
  </g>
 </g>
</svg>
