<?xml version='1.0' encoding='UTF-8' standalone='no'?>
<!-- Created with Fritzing (http://www.fritzing.org/) -->
<svg xmlns="http://www.w3.org/2000/svg" width="5.94012in" x="0in" version="1.2" height="4.41815in"  y="0in" viewBox="0 0 427.689 318.107" baseProfile="tiny" xmlns:svg="http://www.w3.org/2000/svg">
 <g partID="57641">
  <g id="silkscreen0">
   <rect stroke-width="0.576" stroke="black" width="427.113" x="0.288" fill="none" height="317.531" y="0.288"/>
  </g>
 </g>
 <g partID="57640">
  <g id="board">
   <rect stroke-width="0.5" stroke="black" width="427.113" x="0.288" fill="none" height="317.531" id="boardoutline" y="0.288" fill-opacity="0.5"/>
  </g>
 </g>
 <g partID="57641">
  <g id="silkscreen0">
   <rect stroke-width="0.576" stroke="black" width="427.113" x="0.288" fill="none" height="317.531" y="0.288"/>
  </g>
 </g>
 <g partID="174780">
  <g transform="translate(-3.78042,77.9261)">
   <g id="copper0">
    <circle stroke-width="2.16" stroke="white" fill="white" cx="39.24" r="4.32" id="connector0pin" cy="12.96"/>
    <circle stroke-width="2.16" stroke="white" fill="white" cx="21.96" r="4.32" id="connector1pin" cy="12.96"/>
    <circle stroke-width="2.16" stroke="white" fill="white" cx="30.6" r="4.32" id="connector2pin" cy="26.64"/>
   </g>
  </g>
 </g>
 <g partID="65630">
  <g transform="translate(50.4316,135.883)">
   <g id="copper0">
    <rect stroke-width="2.16" stroke="white" width="3.96" x="2.34" fill="white" height="3.96" id="square" y="2.34"/>
    <circle stroke-width="2.16" stroke="white" fill="white" cx="4.32" r="1.98" id="connector0pin" cy="4.32"/>
    <circle stroke-width="2.16" stroke="white" fill="white" cx="25.92" r="1.98" id="connector7pin" cy="4.32"/>
    <circle stroke-width="2.16" stroke="white" fill="white" cx="4.32" r="1.98" id="connector1pin" cy="11.52"/>
    <circle stroke-width="2.16" stroke="white" fill="white" cx="25.92" r="1.98" id="connector6pin" cy="11.52"/>
    <circle stroke-width="2.16" stroke="white" fill="white" cx="4.32" r="1.98" id="connector2pin" cy="18.72"/>
    <circle stroke-width="2.16" stroke="white" fill="white" cx="25.92" r="1.98" id="connector5pin" cy="18.72"/>
    <circle stroke-width="2.16" stroke="white" fill="white" cx="4.32" r="1.98" id="connector3pin" cy="25.92"/>
    <circle stroke-width="2.16" stroke="white" fill="white" cx="25.92" r="1.98" id="connector4pin" cy="25.92"/>
   </g>
  </g>
 </g>
 <g partID="65660">
  <g transform="translate(129.97,133.646)">
   <g id="copper0">
    <rect stroke-width="2.16" stroke="white" width="3.96" x="2.34" fill="white" height="3.96" id="square" y="2.34"/>
    <circle stroke-width="2.16" stroke="white" fill="white" cx="4.32" r="1.98" id="connector0pin" cy="4.32"/>
    <circle stroke-width="2.16" stroke="white" fill="white" cx="25.92" r="1.98" id="connector7pin" cy="4.32"/>
    <circle stroke-width="2.16" stroke="white" fill="white" cx="4.32" r="1.98" id="connector1pin" cy="11.52"/>
    <circle stroke-width="2.16" stroke="white" fill="white" cx="25.92" r="1.98" id="connector6pin" cy="11.52"/>
    <circle stroke-width="2.16" stroke="white" fill="white" cx="4.32" r="1.98" id="connector2pin" cy="18.72"/>
    <circle stroke-width="2.16" stroke="white" fill="white" cx="25.92" r="1.98" id="connector5pin" cy="18.72"/>
    <circle stroke-width="2.16" stroke="white" fill="white" cx="4.32" r="1.98" id="connector3pin" cy="25.92"/>
    <circle stroke-width="2.16" stroke="white" fill="white" cx="25.92" r="1.98" id="connector4pin" cy="25.92"/>
   </g>
  </g>
 </g>
 <g partID="65690">
  <g transform="translate(324.84,118.313)">
   <g id="copper0">
    <rect stroke-width="2.16" stroke="white" width="3.96" x="2.34" fill="white" height="3.96" id="square" y="2.34"/>
    <circle stroke-width="2.16" stroke="white" fill="white" cx="4.32" r="1.98" id="connector0pin" cy="4.32"/>
    <circle stroke-width="2.16" stroke="white" fill="white" cx="25.92" r="1.98" id="connector7pin" cy="4.32"/>
    <circle stroke-width="2.16" stroke="white" fill="white" cx="4.32" r="1.98" id="connector1pin" cy="11.52"/>
    <circle stroke-width="2.16" stroke="white" fill="white" cx="25.92" r="1.98" id="connector6pin" cy="11.52"/>
    <circle stroke-width="2.16" stroke="white" fill="white" cx="4.32" r="1.98" id="connector2pin" cy="18.72"/>
    <circle stroke-width="2.16" stroke="white" fill="white" cx="25.92" r="1.98" id="connector5pin" cy="18.72"/>
    <circle stroke-width="2.16" stroke="white" fill="white" cx="4.32" r="1.98" id="connector3pin" cy="25.92"/>
    <circle stroke-width="2.16" stroke="white" fill="white" cx="25.92" r="1.98" id="connector4pin" cy="25.92"/>
   </g>
  </g>
 </g>
 <g partID="65720">
  <g transform="translate(206.751,102.429)">
   <g id="copper0">
    <rect stroke-width="2.16" stroke="white" width="3.96" x="2.34" fill="white" height="3.96" id="square" y="2.34"/>
    <circle stroke-width="2.16" stroke="white" fill="white" cx="4.32" r="1.98" id="connector0pin" cy="4.32"/>
    <circle stroke-width="2.16" stroke="white" fill="white" cx="25.92" r="1.98" id="connector7pin" cy="4.32"/>
    <circle stroke-width="2.16" stroke="white" fill="white" cx="4.32" r="1.98" id="connector1pin" cy="11.52"/>
    <circle stroke-width="2.16" stroke="white" fill="white" cx="25.92" r="1.98" id="connector6pin" cy="11.52"/>
    <circle stroke-width="2.16" stroke="white" fill="white" cx="4.32" r="1.98" id="connector2pin" cy="18.72"/>
    <circle stroke-width="2.16" stroke="white" fill="white" cx="25.92" r="1.98" id="connector5pin" cy="18.72"/>
    <circle stroke-width="2.16" stroke="white" fill="white" cx="4.32" r="1.98" id="connector3pin" cy="25.92"/>
    <circle stroke-width="2.16" stroke="white" fill="white" cx="25.92" r="1.98" id="connector4pin" cy="25.92"/>
   </g>
  </g>
 </g>
 <g partID="65750">
  <g transform="translate(265.765,39.0997)">
   <g id="copper0">
    <rect stroke-width="2.16" stroke="white" width="3.96" x="2.34" fill="white" height="3.96" id="square" y="2.34"/>
    <circle stroke-width="2.16" stroke="white" fill="white" cx="4.32" r="1.98" id="connector0pin" cy="4.32"/>
    <circle stroke-width="2.16" stroke="white" fill="white" cx="25.92" r="1.98" id="connector7pin" cy="4.32"/>
    <circle stroke-width="2.16" stroke="white" fill="white" cx="4.32" r="1.98" id="connector1pin" cy="11.52"/>
    <circle stroke-width="2.16" stroke="white" fill="white" cx="25.92" r="1.98" id="connector6pin" cy="11.52"/>
    <circle stroke-width="2.16" stroke="white" fill="white" cx="4.32" r="1.98" id="connector2pin" cy="18.72"/>
    <circle stroke-width="2.16" stroke="white" fill="white" cx="25.92" r="1.98" id="connector5pin" cy="18.72"/>
    <circle stroke-width="2.16" stroke="white" fill="white" cx="4.32" r="1.98" id="connector3pin" cy="25.92"/>
    <circle stroke-width="2.16" stroke="white" fill="white" cx="25.92" r="1.98" id="connector4pin" cy="25.92"/>
   </g>
  </g>
 </g>
 <g partID="18433890">
  <g transform="translate(66.4742,195.855)">
   <g transform="matrix(0,1,-1,0,0,0)">
    <g id="copper0">
     <circle stroke-width="2.808" stroke="white" fill="white" cx="3.528" r="2.52" id="connector2pad" cy="17.928"/>
     <rect stroke-width="2.808" stroke="white" width="5.04" x="1.008" fill="white" height="5.04" y="1.008"/>
     <circle stroke-width="2.808" stroke="white" fill="white" cx="3.528" r="2.52" id="connector0pad" cy="3.528"/>
     <circle stroke-width="2.808" stroke="white" fill="white" cx="17.928" r="2.52" id="connector1pad" cy="10.728"/>
    </g>
   </g>
  </g>
 </g>
 <g partID="18435310">
  <g transform="translate(95.0228,196.44)">
   <g transform="matrix(0,1,-1,0,0,0)">
    <g id="copper0">
     <circle stroke-width="2.808" stroke="white" fill="white" cx="3.528" r="2.52" id="connector2pad" cy="17.928"/>
     <rect stroke-width="2.808" stroke="white" width="5.04" x="1.008" fill="white" height="5.04" y="1.008"/>
     <circle stroke-width="2.808" stroke="white" fill="white" cx="3.528" r="2.52" id="connector0pad" cy="3.528"/>
     <circle stroke-width="2.808" stroke="white" fill="white" cx="17.928" r="2.52" id="connector1pad" cy="10.728"/>
    </g>
   </g>
  </g>
 </g>
 <g partID="18435110">
  <g transform="translate(124.307,195.855)">
   <g transform="matrix(0,1,-1,0,0,0)">
    <g id="copper0">
     <circle stroke-width="2.808" stroke="white" fill="white" cx="3.528" r="2.52" id="connector2pad" cy="17.928"/>
     <rect stroke-width="2.808" stroke="white" width="5.04" x="1.008" fill="white" height="5.04" y="1.008"/>
     <circle stroke-width="2.808" stroke="white" fill="white" cx="3.528" r="2.52" id="connector0pad" cy="3.528"/>
     <circle stroke-width="2.808" stroke="white" fill="white" cx="17.928" r="2.52" id="connector1pad" cy="10.728"/>
    </g>
   </g>
  </g>
 </g>
 <g partID="18434910">
  <g transform="translate(153.543,195.271)">
   <g transform="matrix(0,1,-1,0,0,0)">
    <g id="copper0">
     <circle stroke-width="2.808" stroke="white" fill="white" cx="3.528" r="2.52" id="connector2pad" cy="17.928"/>
     <rect stroke-width="2.808" stroke="white" width="5.04" x="1.008" fill="white" height="5.04" y="1.008"/>
     <circle stroke-width="2.808" stroke="white" fill="white" cx="3.528" r="2.52" id="connector0pad" cy="3.528"/>
     <circle stroke-width="2.808" stroke="white" fill="white" cx="17.928" r="2.52" id="connector1pad" cy="10.728"/>
    </g>
   </g>
  </g>
 </g>
 <g partID="18434710">
  <g transform="translate(182.589,195.855)">
   <g transform="matrix(0,1,-1,0,0,0)">
    <g id="copper0">
     <circle stroke-width="2.808" stroke="white" fill="white" cx="3.528" r="2.52" id="connector2pad" cy="17.928"/>
     <rect stroke-width="2.808" stroke="white" width="5.04" x="1.008" fill="white" height="5.04" y="1.008"/>
     <circle stroke-width="2.808" stroke="white" fill="white" cx="3.528" r="2.52" id="connector0pad" cy="3.528"/>
     <circle stroke-width="2.808" stroke="white" fill="white" cx="17.928" r="2.52" id="connector1pad" cy="10.728"/>
    </g>
   </g>
  </g>
 </g>
 <g partID="18434510">
  <g transform="translate(211.191,196.44)">
   <g transform="matrix(0,1,-1,0,0,0)">
    <g id="copper0">
     <circle stroke-width="2.808" stroke="white" fill="white" cx="3.528" r="2.52" id="connector2pad" cy="17.928"/>
     <rect stroke-width="2.808" stroke="white" width="5.04" x="1.008" fill="white" height="5.04" y="1.008"/>
     <circle stroke-width="2.808" stroke="white" fill="white" cx="3.528" r="2.52" id="connector0pad" cy="3.528"/>
     <circle stroke-width="2.808" stroke="white" fill="white" cx="17.928" r="2.52" id="connector1pad" cy="10.728"/>
    </g>
   </g>
  </g>
 </g>
 <g partID="18434110">
  <g transform="translate(241.07,196.147)">
   <g transform="matrix(0,1,-1,0,0,0)">
    <g id="copper0">
     <circle stroke-width="2.808" stroke="white" fill="white" cx="3.528" r="2.52" id="connector2pad" cy="17.928"/>
     <rect stroke-width="2.808" stroke="white" width="5.04" x="1.008" fill="white" height="5.04" y="1.008"/>
     <circle stroke-width="2.808" stroke="white" fill="white" cx="3.528" r="2.52" id="connector0pad" cy="3.528"/>
     <circle stroke-width="2.808" stroke="white" fill="white" cx="17.928" r="2.52" id="connector1pad" cy="10.728"/>
    </g>
   </g>
  </g>
 </g>
 <g partID="18434310">
  <g transform="translate(271.75,196.732)">
   <g transform="matrix(0,1,-1,0,0,0)">
    <g id="copper0">
     <circle stroke-width="2.808" stroke="white" fill="white" cx="3.528" r="2.52" id="connector2pad" cy="17.928"/>
     <rect stroke-width="2.808" stroke="white" width="5.04" x="1.008" fill="white" height="5.04" y="1.008"/>
     <circle stroke-width="2.808" stroke="white" fill="white" cx="3.528" r="2.52" id="connector0pad" cy="3.528"/>
     <circle stroke-width="2.808" stroke="white" fill="white" cx="17.928" r="2.52" id="connector1pad" cy="10.728"/>
    </g>
   </g>
  </g>
 </g>
 <g partID="66190">
  <g transform="translate(248.483,248.765)">
   <g id="copper0">
    <circle stroke-width="2.16" stroke="white" fill="white" cx="20.8462" r="1.98" id="connector0pad" cy="15.6024"/>
    <circle stroke-width="2.16" stroke="white" fill="white" cx="2.42064" r="1.98" id="connector1pad" cy="15.6024"/>
    <circle stroke-width="2.16" stroke="white" fill="white" cx="20.8462" r="1.98" id="connector2pad" cy="2.84616"/>
    <circle stroke-width="2.16" stroke="white" fill="white" cx="2.42064" r="1.98" id="connector3pad" cy="2.84616"/>
   </g>
  </g>
 </g>
 <g partID="66170">
  <g transform="translate(218.69,248.765)">
   <g id="copper0">
    <circle stroke-width="2.16" stroke="white" fill="white" cx="20.8462" r="1.98" id="connector0pad" cy="15.6024"/>
    <circle stroke-width="2.16" stroke="white" fill="white" cx="2.42064" r="1.98" id="connector1pad" cy="15.6024"/>
    <circle stroke-width="2.16" stroke="white" fill="white" cx="20.8462" r="1.98" id="connector2pad" cy="2.84616"/>
    <circle stroke-width="2.16" stroke="white" fill="white" cx="2.42064" r="1.98" id="connector3pad" cy="2.84616"/>
   </g>
  </g>
 </g>
 <g partID="66150">
  <g transform="translate(188.811,248.765)">
   <g id="copper0">
    <circle stroke-width="2.16" stroke="white" fill="white" cx="20.8462" r="1.98" id="connector0pad" cy="15.6024"/>
    <circle stroke-width="2.16" stroke="white" fill="white" cx="2.42064" r="1.98" id="connector1pad" cy="15.6024"/>
    <circle stroke-width="2.16" stroke="white" fill="white" cx="20.8462" r="1.98" id="connector2pad" cy="2.84616"/>
    <circle stroke-width="2.16" stroke="white" fill="white" cx="2.42064" r="1.98" id="connector3pad" cy="2.84616"/>
   </g>
  </g>
 </g>
 <g partID="66130">
  <g transform="translate(160.21,248.765)">
   <g id="copper0">
    <circle stroke-width="2.16" stroke="white" fill="white" cx="20.8462" r="1.98" id="connector0pad" cy="15.6024"/>
    <circle stroke-width="2.16" stroke="white" fill="white" cx="2.42064" r="1.98" id="connector1pad" cy="15.6024"/>
    <circle stroke-width="2.16" stroke="white" fill="white" cx="20.8462" r="1.98" id="connector2pad" cy="2.84616"/>
    <circle stroke-width="2.16" stroke="white" fill="white" cx="2.42064" r="1.98" id="connector3pad" cy="2.84616"/>
   </g>
  </g>
 </g>
 <g partID="66110">
  <g transform="translate(131.163,248.765)">
   <g id="copper0">
    <circle stroke-width="2.16" stroke="white" fill="white" cx="20.8462" r="1.98" id="connector0pad" cy="15.6024"/>
    <circle stroke-width="2.16" stroke="white" fill="white" cx="2.42064" r="1.98" id="connector1pad" cy="15.6024"/>
    <circle stroke-width="2.16" stroke="white" fill="white" cx="20.8462" r="1.98" id="connector2pad" cy="2.84616"/>
    <circle stroke-width="2.16" stroke="white" fill="white" cx="2.42064" r="1.98" id="connector3pad" cy="2.84616"/>
   </g>
  </g>
 </g>
 <g partID="66090">
  <g transform="translate(101.928,248.765)">
   <g id="copper0">
    <circle stroke-width="2.16" stroke="white" fill="white" cx="20.8462" r="1.98" id="connector0pad" cy="15.6024"/>
    <circle stroke-width="2.16" stroke="white" fill="white" cx="2.42064" r="1.98" id="connector1pad" cy="15.6024"/>
    <circle stroke-width="2.16" stroke="white" fill="white" cx="20.8462" r="1.98" id="connector2pad" cy="2.84616"/>
    <circle stroke-width="2.16" stroke="white" fill="white" cx="2.42064" r="1.98" id="connector3pad" cy="2.84616"/>
   </g>
  </g>
 </g>
 <g partID="66070">
  <g transform="translate(72.6434,248.765)">
   <g id="copper0">
    <circle stroke-width="2.16" stroke="white" fill="white" cx="20.8462" r="1.98" id="connector0pad" cy="15.6024"/>
    <circle stroke-width="2.16" stroke="white" fill="white" cx="2.42064" r="1.98" id="connector1pad" cy="15.6024"/>
    <circle stroke-width="2.16" stroke="white" fill="white" cx="20.8462" r="1.98" id="connector2pad" cy="2.84616"/>
    <circle stroke-width="2.16" stroke="white" fill="white" cx="2.42064" r="1.98" id="connector3pad" cy="2.84616"/>
   </g>
  </g>
 </g>
 <g partID="66040">
  <g transform="translate(44.0948,248.765)">
   <g id="copper0">
    <circle stroke-width="2.16" stroke="white" fill="white" cx="20.8462" r="1.98" id="connector0pad" cy="15.6024"/>
    <circle stroke-width="2.16" stroke="white" fill="white" cx="2.42064" r="1.98" id="connector1pad" cy="15.6024"/>
    <circle stroke-width="2.16" stroke="white" fill="white" cx="20.8462" r="1.98" id="connector2pad" cy="2.84616"/>
    <circle stroke-width="2.16" stroke="white" fill="white" cx="2.42064" r="1.98" id="connector3pad" cy="2.84616"/>
   </g>
  </g>
 </g>
 <g partID="84070">
  <g transform="translate(309.534,19.538)">
   <g transform="matrix(-1,0,0,-1,0,0)">
    <g id="copper0">
     <g id="copper1">
      <!-- <rect width="55" x="10" y="15.5" fill="none" height="55" stroke="rgb(255, 191, 0)" stroke-width="20" />  -->
      <circle stroke-width="2.16" stroke="white" fill="white" cx="2.7" r="1.98" id="connector0pin" cy="3.096"/>
      <circle stroke-width="2.16" stroke="white" fill="white" cx="31.5" r="1.98" id="connector1pin" cy="3.096"/>
     </g>
    </g>
   </g>
  </g>
 </g>
 <g partID="68100">
  <g transform="translate(85.5956,150.332)">
   <g id="copper0">
    <g id="copper1">
     <!--  <rect width="55" x="10" y="35" fill="none" height="55" stroke="rgb(255, 191, 0)" stroke-width="20" /> -->
     <circle stroke-width="2.16" stroke="white" fill="white" cx="2.7" r="1.98" id="connector0pin" cy="4.5"/>
     <circle stroke-width="2.16" stroke="white" fill="white" cx="9.9" r="1.98" id="connector1pin" cy="4.5"/>
    </g>
   </g>
  </g>
 </g>
 <g partID="85230">
  <g transform="translate(244.655,52.6434)">
   <g transform="matrix(0,1,-1,0,0,0)">
    <g id="copper0">
     <g id="copper1">
      <!-- <rect width="55" x="10" y="15.5" fill="none" height="55" stroke="rgb(255, 191, 0)" stroke-width="20" />  -->
      <circle stroke-width="2.16" stroke="white" fill="white" cx="2.7" r="1.98" id="connector0pin" cy="3.096"/>
      <circle stroke-width="2.16" stroke="white" fill="white" cx="31.5" r="1.98" id="connector1pin" cy="3.096"/>
     </g>
    </g>
   </g>
  </g>
 </g>
 <g partID="85220">
  <g transform="translate(253.898,68.1712)">
   <g transform="matrix(0,-1,1,0,0,0)">
    <g id="copper0">
     <g id="copper1">
      <!--  <rect width="55" x="10" y="35" fill="none" height="55" stroke="rgb(255, 191, 0)" stroke-width="20" /> -->
      <circle stroke-width="2.16" stroke="white" fill="white" cx="2.7" r="1.98" id="connector0pin" cy="4.5"/>
      <circle stroke-width="2.16" stroke="white" fill="white" cx="9.9" r="1.98" id="connector1pin" cy="4.5"/>
     </g>
    </g>
   </g>
  </g>
 </g>
 <g partID="71140">
  <g transform="translate(103.733,105.501)">
   <g id="copper0">
    <g id="copper1">
     <!-- <rect width="55" x="10" y="15.5" fill="none" height="55" stroke="rgb(255, 191, 0)" stroke-width="20" />  -->
     <circle stroke-width="2.16" stroke="white" fill="white" cx="2.7" r="1.98" id="connector0pin" cy="3.096"/>
     <circle stroke-width="2.16" stroke="white" fill="white" cx="31.5" r="1.98" id="connector1pin" cy="3.096"/>
    </g>
   </g>
  </g>
 </g>
 <g partID="71130">
  <g transform="translate(111.333,174.346)">
   <g transform="matrix(0,-1,1,0,0,0)">
    <g id="copper0">
     <g id="copper1">
      <!--  <rect width="55" x="10" y="35" fill="none" height="55" stroke="rgb(255, 191, 0)" stroke-width="20" /> -->
      <circle stroke-width="2.16" stroke="white" fill="white" cx="2.7" r="1.98" id="connector0pin" cy="4.5"/>
      <circle stroke-width="2.16" stroke="white" fill="white" cx="9.9" r="1.98" id="connector1pin" cy="4.5"/>
     </g>
    </g>
   </g>
  </g>
 </g>
 <g partID="70310">
  <g transform="translate(69.7652,169.121)">
   <g id="copper0">
    <g id="copper1">
     <!-- <rect width="55" x="10" y="15.5" fill="none" height="55" stroke="rgb(255, 191, 0)" stroke-width="20" />  -->
     <circle stroke-width="2.16" stroke="white" fill="white" cx="2.7" r="1.98" id="connector0pin" cy="3.096"/>
     <circle stroke-width="2.16" stroke="white" fill="white" cx="31.5" r="1.98" id="connector1pin" cy="3.096"/>
    </g>
   </g>
  </g>
 </g>
 <g partID="70280">
  <g transform="translate(103.827,122.613)">
   <g id="copper0">
    <g id="copper1">
     <!-- <rect width="55" x="10" y="15.5" fill="none" height="55" stroke="rgb(255, 191, 0)" stroke-width="20" />  -->
     <circle stroke-width="2.16" stroke="white" fill="white" cx="2.7" r="1.98" id="connector0pin" cy="3.096"/>
     <circle stroke-width="2.16" stroke="white" fill="white" cx="31.5" r="1.98" id="connector1pin" cy="3.096"/>
    </g>
   </g>
  </g>
 </g>
 <g partID="82930">
  <g transform="translate(228.418,162.289)">
   <g transform="matrix(0,-1,1,0,0,0)">
    <g id="copper0">
     <g id="copper1">
      <!--  <rect width="55" x="10" y="35" fill="none" height="55" stroke="rgb(255, 191, 0)" stroke-width="20" /> -->
      <circle stroke-width="2.16" stroke="white" fill="white" cx="2.7" r="1.98" id="connector0pin" cy="4.5"/>
      <circle stroke-width="2.16" stroke="white" fill="white" cx="9.9" r="1.98" id="connector1pin" cy="4.5"/>
     </g>
    </g>
   </g>
  </g>
 </g>
 <g partID="73440">
  <g transform="translate(114.788,151.861)">
   <g transform="matrix(0,-1,1,0,0,0)">
    <g id="copper0">
     <g id="copper1">
      <!--  <rect width="55" x="10" y="35" fill="none" height="55" stroke="rgb(255, 191, 0)" stroke-width="20" /> -->
      <circle stroke-width="2.16" stroke="white" fill="white" cx="2.7" r="1.98" id="connector0pin" cy="4.5"/>
      <circle stroke-width="2.16" stroke="white" fill="white" cx="9.9" r="1.98" id="connector1pin" cy="4.5"/>
     </g>
    </g>
   </g>
  </g>
 </g>
 <g partID="72710">
  <g transform="translate(33.3084,174.609)">
   <g transform="matrix(0,-1,1,0,0,0)">
    <g id="copper0">
     <g id="copper1">
      <!-- <rect width="55" x="10" y="15.5" fill="none" height="55" stroke="rgb(255, 191, 0)" stroke-width="20" />  -->
      <circle stroke-width="2.16" stroke="white" fill="white" cx="2.7" r="1.98" id="connector0pin" cy="3.096"/>
      <circle stroke-width="2.16" stroke="white" fill="white" cx="31.5" r="1.98" id="connector1pin" cy="3.096"/>
     </g>
    </g>
   </g>
  </g>
 </g>
 <g partID="84230">
  <g transform="translate(311.41,27.9729)">
   <g transform="matrix(0,-1,1,0,0,0)">
    <g id="copper0">
     <g id="copper1">
      <!--  <rect width="55" x="10" y="35" fill="none" height="55" stroke="rgb(255, 191, 0)" stroke-width="20" /> -->
      <circle stroke-width="2.16" stroke="white" fill="white" cx="2.7" r="1.98" id="connector0pin" cy="4.5"/>
      <circle stroke-width="2.16" stroke="white" fill="white" cx="9.9" r="1.98" id="connector1pin" cy="4.5"/>
     </g>
    </g>
   </g>
  </g>
 </g>
 <g partID="83090">
  <g transform="translate(237.58,124.029)">
   <g transform="matrix(0,-1,1,0,0,0)">
    <g id="copper0">
     <g id="copper1">
      <!--  <rect width="55" x="10" y="35" fill="none" height="55" stroke="rgb(255, 191, 0)" stroke-width="20" /> -->
      <circle stroke-width="2.16" stroke="white" fill="white" cx="2.7" r="1.98" id="connector0pin" cy="4.5"/>
      <circle stroke-width="2.16" stroke="white" fill="white" cx="9.9" r="1.98" id="connector1pin" cy="4.5"/>
     </g>
    </g>
   </g>
  </g>
 </g>
 <g partID="80940">
  <g transform="translate(294.025,109.437)">
   <g transform="matrix(0,1,-1,0,0,0)">
    <g id="copper0">
     <g id="copper1">
      <!--  <rect width="55" x="10" y="35" fill="none" height="55" stroke="rgb(255, 191, 0)" stroke-width="20" /> -->
      <circle stroke-width="2.16" stroke="white" fill="white" cx="2.7" r="1.98" id="connector0pin" cy="4.5"/>
      <circle stroke-width="2.16" stroke="white" fill="white" cx="9.9" r="1.98" id="connector1pin" cy="4.5"/>
     </g>
    </g>
   </g>
  </g>
 </g>
 <g partID="78110">
  <g transform="translate(128.23,169.121)">
   <g id="copper0">
    <g id="copper1">
     <!-- <rect width="55" x="10" y="15.5" fill="none" height="55" stroke="rgb(255, 191, 0)" stroke-width="20" />  -->
     <circle stroke-width="2.16" stroke="white" fill="white" cx="2.7" r="1.98" id="connector0pin" cy="3.096"/>
     <circle stroke-width="2.16" stroke="white" fill="white" cx="31.5" r="1.98" id="connector1pin" cy="3.096"/>
    </g>
   </g>
  </g>
 </g>
 <g partID="73090">
  <g transform="translate(42.29,150.597)">
   <g transform="matrix(0,-1,1,0,0,0)">
    <g id="copper0">
     <g id="copper1">
      <!-- <rect width="55" x="10" y="15.5" fill="none" height="55" stroke="rgb(255, 191, 0)" stroke-width="20" />  -->
      <circle stroke-width="2.16" stroke="white" fill="white" cx="2.7" r="1.98" id="connector0pin" cy="3.096"/>
      <circle stroke-width="2.16" stroke="white" fill="white" cx="31.5" r="1.98" id="connector1pin" cy="3.096"/>
     </g>
    </g>
   </g>
  </g>
 </g>
 <g partID="75890">
  <g transform="translate(94.6156,132.749)">
   <g transform="matrix(0,1,-1,0,0,0)">
    <g id="copper0">
     <g id="copper1">
      <circle stroke-width="2.16" stroke="white" fill="white" cx="2.88" r="1.8" id="connector0pin" cy="2.88"/>
      <circle stroke-width="2.16" stroke="white" fill="white" cx="10.0933" r="1.8" id="connector1pin" cy="2.88"/>
     </g>
    </g>
   </g>
  </g>
 </g>
 <g partID="18442400">
  <g transform="translate(406.54,137.648)">
   <g transform="matrix(0,1,-1,0,0,0)">
    <g id="copper0">
     <rect stroke-width="2.16" width="4.176" stroke="white" x="2.952" fill="white" height="4.176" id="square" y="2.952"/>
     <circle stroke-width="2.16" stroke="white" fill="white" cx="5.04" r="2.088" id="connector0pin" cy="5.04"/>
     <circle stroke-width="2.16" stroke="white" fill="white" cx="5.04" r="2.088" id="connector1pin" cy="19.44"/>
     <circle stroke-width="2.16" stroke="white" fill="white" cx="5.04" r="2.088" id="connector2pin" cy="33.84"/>
    </g>
   </g>
  </g>
 </g>
 <g partID="77660">
  <g transform="translate(268.874,99.4509)">
   <g id="copper0">
    <g id="copper1">
     <!-- <rect width="55" x="10" y="15.5" fill="none" height="55" stroke="rgb(255, 191, 0)" stroke-width="20" />  -->
     <circle stroke-width="2.16" stroke="white" fill="white" cx="2.7" r="1.98" id="connector0pin" cy="3.096"/>
     <circle stroke-width="2.16" stroke="white" fill="white" cx="31.5" r="1.98" id="connector1pin" cy="3.096"/>
    </g>
   </g>
  </g>
 </g>
 <g partID="78790">
  <g transform="translate(175.166,129.084)">
   <g transform="matrix(-1,0,0,-1,0,0)">
    <g id="copper0">
     <g id="copper1">
      <!-- <rect width="55" x="10" y="15.5" fill="none" height="55" stroke="rgb(255, 191, 0)" stroke-width="20" />  -->
      <circle stroke-width="2.16" stroke="white" fill="white" cx="2.7" r="1.98" id="connector0pin" cy="3.096"/>
      <circle stroke-width="2.16" stroke="white" fill="white" cx="31.5" r="1.98" id="connector1pin" cy="3.096"/>
     </g>
    </g>
   </g>
  </g>
 </g>
 <g partID="80110">
  <g transform="translate(161.723,155.396)">
   <g transform="matrix(0,-1,1,0,0,0)">
    <g id="copper0">
     <rect stroke-width="2.16" width="3.96" stroke="white" x="1.98" fill="white" height="3.96" y="5.58" id="rect11"/>
     <circle stroke-width="2.16" stroke="white" fill="white" cx="3.96" r="1.98" id="connector0pin" cy="7.56"/>
     <circle stroke-width="2.16" stroke="white" fill="white" cx="11.16" r="1.98" id="connector1pin" cy="7.56"/>
    </g>
   </g>
  </g>
 </g>
 <g partID="82050">
  <g transform="translate(267.066,155.238)">
   <g id="copper0">
    <g id="copper1">
     <!-- <rect width="55" x="10" y="15.5" fill="none" height="55" stroke="rgb(255, 191, 0)" stroke-width="20" />  -->
     <circle stroke-width="2.16" stroke="white" fill="white" cx="2.7" r="1.98" id="connector0pin" cy="3.096"/>
     <circle stroke-width="2.16" stroke="white" fill="white" cx="31.5" r="1.98" id="connector1pin" cy="3.096"/>
    </g>
   </g>
  </g>
 </g>
 <g partID="82220">
  <g transform="translate(301.266,172.544)">
   <g transform="matrix(-1,0,0,-1,0,0)">
    <g id="copper0">
     <g id="copper1">
      <!-- <rect width="55" x="10" y="15.5" fill="none" height="55" stroke="rgb(255, 191, 0)" stroke-width="20" />  -->
      <circle stroke-width="2.16" stroke="white" fill="white" cx="2.7" r="1.98" id="connector0pin" cy="3.096"/>
      <circle stroke-width="2.16" stroke="white" fill="white" cx="31.5" r="1.98" id="connector1pin" cy="3.096"/>
     </g>
    </g>
   </g>
  </g>
 </g>
 <g partID="83980">
  <g transform="translate(342.226,17.885)">
   <g transform="matrix(-1,0,0,-1,0,0)">
    <g id="copper0">
     <rect stroke-width="2.16" width="3.96" stroke="white" x="1.98" fill="white" height="3.96" y="5.58" id="rect11"/>
     <circle stroke-width="2.16" stroke="white" fill="white" cx="3.96" r="1.98" id="connector0pin" cy="7.56"/>
     <circle stroke-width="2.16" stroke="white" fill="white" cx="11.16" r="1.98" id="connector1pin" cy="7.56"/>
    </g>
   </g>
  </g>
 </g>
 <g partID="82680">
  <g transform="translate(242.406,152.033)">
   <g id="copper0">
    <rect stroke-width="2.16" width="3.96" stroke="white" x="1.98" fill="white" height="3.96" y="5.58" id="rect11"/>
    <circle stroke-width="2.16" stroke="white" fill="white" cx="3.96" r="1.98" id="connector0pin" cy="7.56"/>
    <circle stroke-width="2.16" stroke="white" fill="white" cx="11.16" r="1.98" id="connector1pin" cy="7.56"/>
   </g>
  </g>
 </g>
 <g partID="83530">
  <g transform="translate(351.288,7.25783)">
   <g id="copper0">
    <rect stroke-width="2.16" width="4.176" stroke="white" x="2.952" fill="white" height="4.176" id="square" y="2.952"/>
    <circle stroke-width="2.16" stroke="white" fill="white" cx="5.04" r="2.088" id="connector0pin" cy="5.04"/>
    <circle stroke-width="2.16" stroke="white" fill="white" cx="5.04" r="2.088" id="connector1pin" cy="12.24"/>
   </g>
  </g>
 </g>
 <g partID="87960">
  <g transform="translate(198.988,104.157)">
   <g transform="matrix(0,1,-1,0,0,0)">
    <g id="copper0">
     <g id="copper1">
      <circle stroke-width="2.16" stroke="white" fill="white" cx="2.88" r="1.8" id="connector0pin" cy="2.88"/>
      <circle stroke-width="2.16" stroke="white" fill="white" cx="10.0933" r="1.8" id="connector1pin" cy="2.88"/>
     </g>
    </g>
   </g>
  </g>
 </g>
 <g partID="84760">
  <g transform="translate(275.367,25.8005)">
   <g id="copper0">
    <g id="copper1">
     <circle stroke-width="2.16" stroke="white" fill="white" cx="2.88" r="1.8" id="connector0pin" cy="2.88"/>
     <circle stroke-width="2.16" stroke="white" fill="white" cx="10.0933" r="1.8" id="connector1pin" cy="2.88"/>
    </g>
   </g>
  </g>
 </g>
 <g partID="87270">
  <g transform="translate(351.294,224.44)">
   <g id="copper0">
    <g id="copper1">
     <!-- <rect width="55" x="10" y="10" fill="none" height="55" stroke="rgb(255, 191, 0)" stroke-width="20" /> -->
     <circle stroke-width="2.16" stroke="white" fill="white" cx="2.7" r="1.98" id="connector0pin" cy="2.7"/>
     <circle stroke-width="2.16" stroke="white" fill="white" cx="24.3" r="1.98" id="connector1pin" cy="2.7"/>
    </g>
   </g>
  </g>
 </g>
 <g partID="87320">
  <g transform="translate(379.796,216.061)">
   <g transform="matrix(-1,0,0,-1,0,0)">
    <g id="copper0">
     <g id="copper1">
      <!-- <rect width="55" x="10" y="15.5" fill="none" height="55" stroke="rgb(255, 191, 0)" stroke-width="20" />  -->
      <circle stroke-width="2.16" stroke="white" fill="white" cx="2.7" r="1.98" id="connector0pin" cy="3.096"/>
      <circle stroke-width="2.16" stroke="white" fill="white" cx="31.5" r="1.98" id="connector1pin" cy="3.096"/>
     </g>
    </g>
   </g>
  </g>
 </g>
 <g partID="87930">
  <g transform="translate(351.413,237.385)">
   <g id="copper0">
    <g id="copper1">
     <!-- <rect width="55" x="10" y="10" fill="none" height="55" stroke="rgb(255, 191, 0)" stroke-width="20" /> -->
     <circle stroke-width="2.16" stroke="white" fill="white" cx="2.7" r="1.98" id="connector0pin" cy="2.7"/>
     <circle stroke-width="2.16" stroke="white" fill="white" cx="24.3" r="1.98" id="connector1pin" cy="2.7"/>
    </g>
   </g>
  </g>
 </g>
 <g partID="88300">
  <g transform="translate(218.7,141.518)">
   <g transform="matrix(-1,0,0,-1,0,0)">
    <g id="copper0">
     <g id="copper1">
      <!-- <rect width="55" x="10" y="15.5" fill="none" height="55" stroke="rgb(255, 191, 0)" stroke-width="20" />  -->
      <circle stroke-width="2.16" stroke="white" fill="white" cx="2.7" r="1.98" id="connector0pin" cy="3.096"/>
      <circle stroke-width="2.16" stroke="white" fill="white" cx="31.5" r="1.98" id="connector1pin" cy="3.096"/>
     </g>
    </g>
   </g>
  </g>
 </g>
 <g partID="18443020">
  <g transform="translate(161.251,113.76)">
   <g transform="matrix(0,-1,1,0,0,0)">
    <g id="copper0">
     <circle stroke-width="2.808" stroke="white" fill="white" cx="3.528" r="2.52" id="connector2pad" cy="17.928"/>
     <rect stroke-width="2.808" stroke="white" width="5.04" x="1.008" fill="white" height="5.04" y="1.008"/>
     <circle stroke-width="2.808" stroke="white" fill="white" cx="3.528" r="2.52" id="connector0pad" cy="3.528"/>
     <circle stroke-width="2.808" stroke="white" fill="white" cx="17.928" r="2.52" id="connector1pad" cy="10.728"/>
    </g>
   </g>
  </g>
 </g>
</svg>
