G04 MADE WITH FRITZING*
G04 WWW.FRITZING.ORG*
G04 DOUBLE SIDED*
G04 HOLES PLATED*
G04 CONTOUR ON CENTER OF CONTOUR VECTOR*
%ASAXBY*%
%FSLAX23Y23*%
%MOIN*%
%OFA0B0*%
%SFA1.0B1.0*%
%ADD10C,0.140000*%
%ADD11C,0.075000*%
%ADD12C,0.070000*%
%ADD13C,0.078000*%
%ADD14C,0.099000*%
%ADD15R,0.075000X0.075000*%
%ADD16R,0.078000X0.078000*%
%ADD17R,0.099000X0.099000*%
%ADD18C,0.048000*%
%LNCOPPER1*%
G90*
G70*
G54D10*
X492Y3156D03*
X252Y3156D03*
X372Y2966D03*
G54D11*
X760Y2471D03*
X1060Y2471D03*
X760Y2371D03*
X1060Y2371D03*
X760Y2271D03*
X1060Y2271D03*
X760Y2171D03*
X1060Y2171D03*
X1865Y2502D03*
X2165Y2502D03*
X1865Y2402D03*
X2165Y2402D03*
X1865Y2302D03*
X2165Y2302D03*
X1865Y2202D03*
X2165Y2202D03*
X4572Y2715D03*
X4872Y2715D03*
X4572Y2615D03*
X4872Y2615D03*
X4572Y2515D03*
X4872Y2515D03*
X4572Y2415D03*
X4872Y2415D03*
X2932Y2936D03*
X3232Y2936D03*
X2932Y2836D03*
X3232Y2836D03*
X2932Y2736D03*
X3232Y2736D03*
X2932Y2636D03*
X3232Y2636D03*
X3751Y3815D03*
X4051Y3815D03*
X3751Y3715D03*
X4051Y3715D03*
X3751Y3615D03*
X4051Y3615D03*
X3751Y3515D03*
X4051Y3515D03*
X3741Y746D03*
X3485Y746D03*
X3741Y924D03*
X3485Y924D03*
X3327Y746D03*
X3071Y746D03*
X3327Y924D03*
X3071Y924D03*
X2912Y746D03*
X2656Y746D03*
X2912Y924D03*
X2656Y924D03*
X2515Y746D03*
X2259Y746D03*
X2515Y924D03*
X2259Y924D03*
X2111Y746D03*
X1855Y746D03*
X2111Y924D03*
X1855Y924D03*
X1705Y746D03*
X1449Y746D03*
X1705Y924D03*
X1449Y924D03*
X1298Y746D03*
X1043Y746D03*
X1298Y924D03*
X1043Y924D03*
X902Y746D03*
X646Y746D03*
X902Y924D03*
X646Y924D03*
X4262Y4190D03*
X3862Y4190D03*
X1226Y2268D03*
X1326Y2268D03*
X3355Y3649D03*
X3355Y3249D03*
X3589Y3509D03*
X3589Y3609D03*
X1478Y2910D03*
X1878Y2910D03*
X1609Y2034D03*
X1609Y2134D03*
X1006Y2026D03*
X1406Y2026D03*
X1480Y2672D03*
X1880Y2672D03*
X3235Y2202D03*
X3235Y2302D03*
X1657Y2346D03*
X1657Y2446D03*
X506Y2031D03*
X506Y2431D03*
X4388Y4067D03*
X4388Y4167D03*
X3362Y2733D03*
X3362Y2833D03*
X4021Y2861D03*
X4021Y2761D03*
X1818Y2026D03*
X2218Y2026D03*
X630Y2364D03*
X630Y2764D03*
G54D12*
X1274Y2534D03*
X1274Y2434D03*
G54D11*
X3772Y2994D03*
X4172Y2994D03*
X2395Y2668D03*
X1995Y2668D03*
X2351Y2315D03*
X2351Y2415D03*
X3747Y2219D03*
X4147Y2219D03*
X4147Y2065D03*
X3747Y2065D03*
X4698Y4275D03*
X4598Y4275D03*
X3422Y2202D03*
X3522Y2202D03*
G54D13*
X4949Y4247D03*
X4949Y4147D03*
G54D12*
X2724Y2932D03*
X2724Y2831D03*
X3865Y4020D03*
X3965Y4020D03*
G54D11*
X4917Y1263D03*
X5217Y1263D03*
X5237Y1460D03*
X4837Y1460D03*
X4918Y1084D03*
X5218Y1084D03*
X3000Y2496D03*
X2600Y2496D03*
G54D14*
X674Y1649D03*
X874Y1649D03*
X774Y1449D03*
X3099Y1645D03*
X3299Y1645D03*
X3199Y1445D03*
X3525Y1637D03*
X3725Y1637D03*
X3625Y1437D03*
X2684Y1641D03*
X2884Y1641D03*
X2784Y1441D03*
X2287Y1649D03*
X2487Y1649D03*
X2387Y1449D03*
X1884Y1657D03*
X2084Y1657D03*
X1984Y1457D03*
X1477Y1649D03*
X1677Y1649D03*
X1577Y1449D03*
X1071Y1641D03*
X1271Y1641D03*
X1171Y1441D03*
G54D13*
X5576Y2436D03*
X5376Y2436D03*
X5176Y2436D03*
G54D14*
X2489Y2887D03*
X2289Y2887D03*
X2389Y3087D03*
G54D15*
X760Y2471D03*
X1865Y2502D03*
X4572Y2715D03*
X2932Y2936D03*
X3751Y3815D03*
X2351Y2315D03*
X4698Y4275D03*
X3422Y2202D03*
G54D16*
X4949Y4247D03*
G54D17*
X874Y1649D03*
X3299Y1645D03*
X3725Y1637D03*
X2884Y1641D03*
X2487Y1649D03*
X2084Y1657D03*
X1677Y1649D03*
X1271Y1641D03*
G54D16*
X5576Y2436D03*
G54D17*
X2289Y2887D03*
G54D18*
X1780Y2323D02*
X1635Y2164D01*
D02*
X1780Y2411D02*
X1780Y2323D01*
D02*
X1780Y2405D02*
X1837Y2403D01*
D02*
X1837Y2403D02*
X1790Y2404D01*
D02*
X1790Y2404D02*
X1780Y2411D01*
D02*
X1069Y1684D02*
X1066Y1809D01*
D02*
X1328Y2102D02*
X1327Y2228D01*
D02*
X1066Y1809D02*
X1328Y2102D01*
D02*
X1776Y2635D02*
X1780Y2405D01*
D02*
X3009Y2705D02*
X2961Y2662D01*
D02*
X3087Y2271D02*
X2511Y2306D01*
D02*
X3752Y2973D02*
X3087Y2271D01*
D02*
X2466Y2356D02*
X2419Y2398D01*
D02*
X2419Y2398D02*
X2390Y2405D01*
D02*
X2511Y2306D02*
X2466Y2356D01*
D02*
X3127Y2453D02*
X3154Y2867D01*
D02*
X3154Y2867D02*
X3202Y2909D01*
D02*
X3041Y2369D02*
X3127Y2453D01*
D02*
X2555Y2395D02*
X3041Y2369D01*
D02*
X2194Y2503D02*
X2367Y2513D01*
D02*
X2464Y2509D02*
X2555Y2395D01*
D02*
X2367Y2513D02*
X2464Y2509D01*
D02*
X4270Y2329D02*
X4273Y1859D01*
D02*
X4273Y1859D02*
X1514Y1864D01*
D02*
X1514Y1864D02*
X1505Y2304D01*
D02*
X4551Y2595D02*
X4270Y2329D01*
D02*
X1505Y2304D02*
X1293Y2516D01*
D02*
X2144Y2222D02*
X1950Y2404D01*
D02*
X1950Y2404D02*
X1894Y2403D01*
D02*
X1499Y2890D02*
X1776Y2635D01*
D02*
X5036Y2880D02*
X4714Y3152D01*
D02*
X4770Y2515D02*
X4600Y2515D01*
D02*
X5024Y976D02*
X5803Y972D01*
D02*
X5803Y972D02*
X5827Y3039D01*
D02*
X5827Y3039D02*
X5000Y3982D01*
D02*
X5000Y3982D02*
X4240Y3989D01*
D02*
X4240Y3989D02*
X4124Y4095D01*
D02*
X4124Y4095D02*
X3731Y4092D01*
D02*
X3731Y4092D02*
X2947Y3534D01*
D02*
X4946Y1055D02*
X5024Y976D01*
D02*
X2947Y3534D02*
X2933Y2975D01*
D02*
X4659Y1662D02*
X5012Y1958D01*
D02*
X5012Y1958D02*
X5036Y2880D01*
D02*
X4650Y1500D02*
X4659Y1662D01*
D02*
X4714Y3152D02*
X3728Y3155D01*
D02*
X4887Y1290D02*
X4650Y1500D01*
D02*
X3728Y3155D02*
X3384Y2852D01*
D02*
X3021Y2837D02*
X2960Y2836D01*
D02*
X3024Y3092D02*
X3021Y2837D01*
D02*
X3459Y3487D02*
X3024Y3092D01*
D02*
X3459Y3763D02*
X3459Y3487D01*
D02*
X3650Y3929D02*
X3459Y3763D01*
D02*
X4929Y3908D02*
X3650Y3929D01*
D02*
X5749Y3000D02*
X4929Y3908D01*
D02*
X5739Y2063D02*
X5749Y3000D01*
D02*
X4865Y1489D02*
X5396Y2052D01*
D02*
X5396Y2052D02*
X5739Y2063D01*
D02*
X3566Y3148D02*
X3339Y3144D01*
D02*
X3339Y3144D02*
X3092Y2932D01*
D02*
X3092Y2932D02*
X3083Y2712D01*
D02*
X3083Y2712D02*
X3009Y2705D01*
D02*
X3586Y3469D02*
X3566Y3148D01*
D02*
X373Y2905D02*
X385Y2164D01*
D02*
X385Y2164D02*
X732Y2170D01*
D02*
X4851Y2595D02*
X4770Y2515D01*
G04 End of Copper1*
M02*