; NON-PLATED HOLES START AT T1
; THROUGH (PLATED) HOLES START AT T100
M48
INCH
T100C0.035000
T101C0.041000
T102C0.100000
T103C0.041333
T104C0.030000
T105C0.038000
T106C0.088356
T107C0.041361
%
T100
X037942Y017878
X046893Y006466
X015263Y026330
X049452Y006466
X008085Y019940
X012555Y006466
X008085Y018940
X024434Y023914
X014545Y017598
X015114Y006466
X037992Y035382
X019132Y021251
X024334Y006466
X040992Y033382
X022677Y017200
X053805Y016785
X019263Y026330
X026894Y006466
X038199Y027170
X018428Y006466
X032833Y028660
X029971Y004695
X024334Y004695
X019132Y022251
X026894Y004695
X034698Y019247
X037954Y019422
X054597Y014816
X015114Y004695
X035486Y006466
X032531Y004695
X011085Y020940
X041157Y004695
X029796Y026586
X029796Y025586
X049452Y004695
X029796Y023586
X036116Y032287
X046893Y004695
X042199Y027170
X020434Y023914
X057613Y013018
X034103Y025561
X017048Y020696
X037992Y033382
X006865Y004695
X018428Y004695
X043046Y038965
X049197Y021380
X015276Y023953
X049197Y022380
X011085Y018940
X057805Y016785
X023992Y020380
X006784Y020871
X010545Y017598
X037992Y032382
X011085Y019940
X016436Y017497
X039046Y038965
X032830Y019247
X032796Y026586
X040992Y034382
X043717Y006466
X043717Y004695
X046197Y021380
X046197Y023380
X030480Y022187
X046462Y039979
X044357Y037902
X037992Y034382
X032796Y025586
X034103Y024561
X046197Y024380
X032796Y024586
X035698Y019247
X017048Y021696
X029796Y024586
X038045Y004695
X040692Y025838
X032833Y032660
X049197Y024380
X016436Y018497
X035486Y004695
X005537Y021537
X040692Y024838
X008085Y020940
X041942Y017878
X020987Y006466
X036116Y033287
X054613Y013018
X018677Y017200
X012744Y019908
X009424Y006466
X049197Y023380
X023992Y021380
X013744Y019908
X040992Y035382
X044357Y038902
X022132Y022251
X032531Y006466
X022132Y019251
X032830Y020247
X005537Y017537
X008085Y021940
X019132Y020251
X006865Y006466
X047462Y039979
X019132Y019251
X009424Y004695
X011085Y021940
X041954Y019422
X032796Y023586
X029971Y006466
X057597Y014816
X020987Y004695
X046197Y022380
X022132Y020251
X006784Y024871
X038045Y006466
X019276Y023953
X012555Y004695
X041157Y006466
X026480Y022187
X040992Y032382
X022132Y021251
T101
X025311Y025492
X052478Y020418
X054478Y020418
X053478Y024418
X024311Y029492
X023311Y025492
T102
X005405Y028790
X004205Y026890
X003005Y028790
T103
X037762Y014596
X013830Y014596
X049169Y014596
X019703Y014596
X020703Y014596
X036762Y014596
X014830Y014596
X026610Y014596
X031247Y014596
X032247Y014596
X009141Y014596
X025610Y014596
X048169Y014596
X042433Y014596
X043433Y014596
X008141Y014596
T104
X027718Y025545
X013222Y021573
X039126Y037429
X013222Y022575
X040128Y037429
X027718Y026546
T105
X049970Y038705
X049970Y039705
T106
X029306Y011643
X017762Y011643
X040492Y011643
X038703Y011643
X033189Y011643
X015772Y011643
X023669Y011643
X027552Y011643
X050110Y011643
X034820Y011643
X021645Y011643
X010082Y011643
X011889Y011643
X006199Y011643
X044375Y011643
X046227Y011643
T107
X047169Y014596
X007141Y014596
X041433Y014596
X030247Y014596
X035762Y014596
X012830Y014596
X024610Y014596
X018703Y014596
T00
M30
