; NON-PLATED HOLES START AT T1
; THROUGH (PLATED) HOLES START AT T100
M48
INCH
T100C0.035000
T101C0.030000
T102C0.038000
T103C0.100000
T104C0.041000
%
T100
X025146Y007463
X052165Y012634
X032349Y023016
X040511Y038150
X016567Y024464
X021651Y023019
X032349Y022016
X013263Y022677
X022587Y009235
X010604Y022708
X033622Y028330
X017051Y007463
X045716Y027149
X030000Y024956
X043876Y041671
X030709Y007463
X034847Y007463
X021651Y024019
X009019Y009235
X023953Y026683
X034217Y022015
X045716Y024149
X012984Y007463
X048374Y014603
X010425Y009235
X007604Y024708
X018184Y020262
X029315Y029355
X021112Y007463
X037511Y036150
X021651Y025019
X045716Y025149
X016087Y021341
X018651Y025019
X048716Y027149
X026000Y024956
X012984Y009235
X029315Y028355
X018553Y007463
X052182Y010836
X040511Y037150
X037511Y035150
X016567Y023464
X006303Y027640
X026560Y009235
X030709Y009235
X023511Y024148
X010604Y024708
X007604Y021708
X048716Y026149
X035888Y036088
X010425Y007463
X052374Y014603
X037718Y029938
X037511Y037150
X033549Y032494
X018553Y009235
X037406Y007463
X045716Y026149
X032315Y027355
X010604Y023708
X014795Y026721
X009019Y007463
X029119Y007463
X032315Y029355
X023511Y023148
X029315Y026355
X041718Y029938
X018651Y022019
X026560Y007463
X019953Y026683
X033549Y036494
X045981Y042747
X006460Y007463
X007604Y023708
X037511Y038150
X010064Y020262
X035888Y035088
X037406Y009235
X037467Y020647
X041467Y022190
X040211Y028606
X012263Y022677
X014492Y007463
X005056Y024305
X048716Y025149
X035217Y022015
X034847Y009235
X049182Y010836
X043876Y040671
X033622Y027330
X040211Y027606
X014064Y020262
X040511Y036150
X006460Y009235
X033269Y009235
X037467Y022190
X016087Y020341
X029119Y009235
X014782Y029098
X014492Y009235
X040511Y035150
X018795Y026721
X005056Y020305
X042615Y041897
X006303Y023640
X010604Y021708
X018651Y024019
X048716Y024149
X022184Y020262
X033269Y007463
X049165Y012634
X041467Y020647
X029315Y027355
X046981Y042747
X007604Y022708
X032315Y026355
X018782Y029098
X017051Y009235
X022587Y007463
X032315Y028355
X025146Y009235
X018651Y023019
X021112Y009235
X038615Y041897
X021651Y022019
T101
X027237Y028313
X038645Y040198
X027237Y029315
X012741Y025344
X039647Y040198
X012741Y024342
T102
X051763Y024363
X055763Y024363
X049489Y041473
X053763Y024363
X049489Y042473
T103
X004924Y031558
X002524Y031558
X003724Y029658
T104
X023886Y030871
X018835Y016570
X035253Y016367
X027842Y014408
X011707Y014408
X022869Y016489
X031991Y014448
X030991Y016448
X024886Y028871
X008742Y016489
X015774Y014489
X020835Y016570
X022886Y028871
X007742Y014489
X014774Y016489
X026842Y016408
X037253Y016367
X016774Y016489
X028842Y016408
X010707Y016408
X024869Y016489
X023869Y014489
X006742Y016489
X012707Y016408
X019835Y014570
X036253Y014367
X032991Y016448
T00
M30
